  0
SECTION
  2
HEADER
  9
$ACADVER
  1
AC1014
  9
$HANDSEED
  5
FFFF
  9
$MEASUREMENT
 70
     1
  0
ENDSEC
  0
SECTION
  2
TABLES
  0
TABLE
  2
VPORT
  5
8
330
0
100
AcDbSymbolTable
 70
     4
  0
VPORT
  5
2E
330
8
100
AcDbSymbolTableRecord
100
AcDbViewportTableRecord
  2
*ACTIVE
 70
     0
 10
0.0
 20
0.0
 11
1.0
 21
1.0
 12
210.0
 22
148.5
 13
0.0
 23
0.0
 14
10.0
 24
10.0
 15
10.0
 25
10.0
 16
0.0
 26
0.0
 36
1.0
 17
0.0
 27
0.0
 37
0.0
 40
341.0
 41
1.24
 42
50.0
 43
0.0
 44
0.0
 50
0.0
 51
0.0
 71
     0
 72
   100
 73
     1
 74
     3
 75
     0
 76
     0
 77
     0
 78
     0
  0
ENDTAB
  0
TABLE
  2
LTYPE
  5
5
330
0
100
AcDbSymbolTable
 70
     1
  0
LTYPE
  5
14
330
5
100
AcDbSymbolTableRecord
100
AcDbLinetypeTableRecord
  2
BYBLOCK
 70
     0
  3

 72
    65
 73
     0
 40
0.0
  0
LTYPE
  5
15
330
5
100
AcDbSymbolTableRecord
100
AcDbLinetypeTableRecord
  2
BYLAYER
 70
     0
  3

 72
    65
 73
     0
 40
0.0
  0
LTYPE
  5
16
330
5
100
AcDbSymbolTableRecord
100
AcDbLinetypeTableRecord
  2
CONTINUOUS
 70
     0
  3
Solid line
 72
    65
 73
     0
 40
0.0
  0
ENDTAB
  0
TABLE
  2
LAYER
  5
2
100
AcDbSymbolTable
 70
1
  0
LAYER
  5
50
100
AcDbSymbolTableRecord
100
AcDbLayerTableRecord
  2
0
 70
0
  6
CONTINUOUS
  0
ENDTAB
  0
TABLE
  2
STYLE
  5
3
330
0
100
AcDbSymbolTable
 70
     1
  0
STYLE
  5
11
330
3
100
AcDbSymbolTableRecord
100
AcDbTextStyleTableRecord
  2
STANDARD
 70
     0
 40
0.0
 41
1.0
 50
0.0
 71
     0
 42
2.5
  3
txt
  4

  0
ENDTAB
  0
TABLE
  2
VIEW
  5
6
330
0
100
AcDbSymbolTable
 70
     0
  0
ENDTAB
  0
TABLE
  2
UCS
  5
7
330
0
100
AcDbSymbolTable
 70
     0
  0
ENDTAB
  0
TABLE
  2
APPID
  5
9
330
0
100
AcDbSymbolTable
 70
     2
  0
APPID
  5
12
330
9
100
AcDbSymbolTableRecord
100
AcDbRegAppTableRecord
  2
ACAD
 70
     0
  0
ENDTAB
  0
TABLE
  2
DIMSTYLE
  5
A
330
0
100
AcDbSymbolTable
 70
     1
  0
DIMSTYLE
105
27
330
A
100
AcDbSymbolTableRecord
100
AcDbDimStyleTableRecord
  2
ISO-25
 70
     0
  3

  4

  5

  6

  7

 40
1.0
 41
2.5
 42
0.625
 43
3.75
 44
1.25
 45
0.0
 46
0.0
 47
0.0
 48
0.0
140
2.5
141
2.5
142
0.0
143
0.03937007874016
144
1.0
145
0.0
146
1.0
147
0.625
 71
     0
 72
     0
 73
     0
 74
     0
 75
     0
 76
     0
 77
     1
 78
     8
170
     0
171
     3
172
     1
173
     0
174
     0
175
     0
176
     0
177
     0
178
     0
270
     2
271
     2
272
     2
273
     2
274
     3
340
11
275
     0
280
     0
281
     0
282
     0
283
     0
284
     8
285
     0
286
     0
287
     3
288
     0
  0
ENDTAB
  0
TABLE
  2
BLOCK_RECORD
  5
1
330
0
100
AcDbSymbolTable
 70
     1
  0
BLOCK_RECORD
  5
1F
330
1
100
AcDbSymbolTableRecord
100
AcDbBlockTableRecord
  2
*MODEL_SPACE
  0
BLOCK_RECORD
  5
1B
330
1
100
AcDbSymbolTableRecord
100
AcDbBlockTableRecord
  2
*PAPER_SPACE
  0
ENDTAB
  0
ENDSEC
  0
SECTION
  2
BLOCKS
  0
BLOCK
  5
20
330
1F
100
AcDbEntity
  8
0
100
AcDbBlockBegin
  2
*MODEL_SPACE
 70
     0
 10
0.0
 20
0.0
 30
0.0
  3
*MODEL_SPACE
  1

  0
ENDBLK
  5
21
330
1F
100
AcDbEntity
  8
0
100
AcDbBlockEnd
  0
BLOCK
  5
1C
330
1B
100
AcDbEntity
 67
     1
  8
0
100
AcDbBlockBegin
  2
*PAPER_SPACE
  1

  0
ENDBLK
  5
1D
330
1B
100
AcDbEntity
 67
     1
  8
0
100
AcDbBlockEnd
  0
ENDSEC
  0
SECTION
  2
ENTITIES
  0
LWPOLYLINE
  5
100
100
AcDbEntity
  8
0
 62
7
100
AcDbPolyline
 90
2
 70
0
 10
243.956835
 20
-71.571815
 30
0.0
 10
229.958895
 20
-71.571815
 30
0.0
  0
LWPOLYLINE
  5
101
100
AcDbEntity
  8
0
 62
7
100
AcDbPolyline
 90
6
 70
0
 10
229.956357
 20
-71.543855
 30
0.0
 10
229.942377
 20
-52.509062
 30
0.0
 10
227.576380
 20
-52.521815
 30
0.0
 10
227.576380
 20
-38.521335
 30
0.0
 10
243.974539
 20
-38.492836
 30
0.0
 10
243.956835
 20
-71.571815
 30
0.0
  0
LWPOLYLINE
  5
102
100
AcDbEntity
  8
0
 62
7
100
AcDbPolyline
 90
4
 70
1
 10
141.564360
 20
-52.521815
 30
0.0
 10
127.563880
 20
-52.521815
 30
0.0
 10
127.563880
 20
-38.521335
 30
0.0
 10
141.564360
 20
-38.521335
 30
0.0
  0
LWPOLYLINE
  5
103
100
AcDbEntity
  8
0
 62
7
100
AcDbPolyline
 90
4
 70
1
 10
239.194340
 20
-19.471335
 30
0.0
 10
239.194340
 20
-33.471815
 30
0.0
 10
225.196400
 20
-33.471815
 30
0.0
 10
225.196400
 20
-19.471335
 30
0.0
  0
LWPOLYLINE
  5
104
100
AcDbEntity
  8
0
 62
7
100
AcDbPolyline
 90
4
 70
1
 10
70.413880
 20
-52.521815
 30
0.0
 10
70.413880
 20
-38.521335
 30
0.0
 10
84.414360
 20
-38.521335
 30
0.0
 10
84.414360
 20
-52.521815
 30
0.0
  0
LWPOLYLINE
  5
105
100
AcDbEntity
  8
0
 62
7
100
AcDbPolyline
 90
4
 70
1
 10
146.613880
 20
-38.521335
 30
0.0
 10
160.614360
 20
-38.521335
 30
0.0
 10
160.614360
 20
-52.521815
 30
0.0
 10
146.613880
 20
-52.521815
 30
0.0
  0
LWPOLYLINE
  5
106
100
AcDbEntity
  8
0
 62
7
100
AcDbPolyline
 90
4
 70
1
 10
213.001860
 20
-33.471815
 30
0.0
 10
199.001380
 20
-33.471815
 30
0.0
 10
199.001380
 20
-19.471335
 30
0.0
 10
213.001860
 20
-19.471335
 30
0.0
  0
LWPOLYLINE
  5
107
100
AcDbEntity
  8
0
 62
7
100
AcDbPolyline
 90
4
 70
1
 10
151.376380
 20
-57.571335
 30
0.0
 10
165.376860
 20
-57.571335
 30
0.0
 10
165.376860
 20
-71.571815
 30
0.0
 10
151.376380
 20
-71.571815
 30
0.0
  0
LWPOLYLINE
  5
108
100
AcDbEntity
  8
0
 62
7
100
AcDbPolyline
 90
4
 70
1
 10
203.476860
 20
-57.571335
 30
0.0
 10
203.476860
 20
-71.571815
 30
0.0
 10
189.476380
 20
-71.571815
 30
0.0
 10
189.476380
 20
-57.571335
 30
0.0
  0
LWPOLYLINE
  5
109
100
AcDbEntity
  8
0
 62
7
100
AcDbPolyline
 90
4
 70
1
 10
227.576380
 20
-76.621335
 30
0.0
 10
241.576860
 20
-76.621335
 30
0.0
 10
241.576860
 20
-90.621815
 30
0.0
 10
227.576380
 20
-90.621815
 30
0.0
  0
LWPOLYLINE
  5
10a
100
AcDbEntity
  8
0
 62
7
100
AcDbPolyline
 90
4
 70
1
 10
98.701860
 20
-19.471335
 30
0.0
 10
98.701860
 20
-33.471815
 30
0.0
 10
84.701380
 20
-33.471815
 30
0.0
 10
84.701380
 20
-19.471335
 30
0.0
  0
LWPOLYLINE
  5
10b
100
AcDbEntity
  8
0
 62
7
100
AcDbPolyline
 90
4
 70
1
 10
132.326380
 20
-57.571335
 30
0.0
 10
146.326860
 20
-57.571335
 30
0.0
 10
146.326860
 20
-71.571815
 30
0.0
 10
132.326380
 20
-71.571815
 30
0.0
  0
LWPOLYLINE
  5
10c
100
AcDbEntity
  8
0
 62
7
100
AcDbPolyline
 90
4
 70
1
 10
65.651380
 20
-33.471815
 30
0.0
 10
65.651380
 20
-19.471335
 30
0.0
 10
79.651860
 20
-19.471335
 30
0.0
 10
79.651860
 20
-33.471815
 30
0.0
  0
LWPOLYLINE
  5
10d
100
AcDbEntity
  8
0
 62
7
100
AcDbPolyline
 90
4
 70
1
 10
203.763880
 20
-38.521335
 30
0.0
 10
217.764360
 20
-38.521335
 30
0.0
 10
217.764360
 20
-52.521815
 30
0.0
 10
203.763880
 20
-52.521815
 30
0.0
  0
LWPOLYLINE
  5
10e
100
AcDbEntity
  8
0
 62
7
100
AcDbPolyline
 90
4
 70
1
 10
60.601860
 20
-33.471815
 30
0.0
 10
46.601380
 20
-33.471815
 30
0.0
 10
46.601380
 20
-19.471335
 30
0.0
 10
60.601860
 20
-19.471335
 30
0.0
  0
LWPOLYLINE
  5
10f
100
AcDbEntity
  8
0
 62
7
100
AcDbPolyline
 90
4
 70
1
 10
8.501380
 20
-19.471335
 30
0.0
 10
22.501860
 20
-19.471335
 30
0.0
 10
22.501860
 20
-33.471815
 30
0.0
 10
8.501380
 20
-33.471815
 30
0.0
  0
LWPOLYLINE
  5
110
100
AcDbEntity
  8
0
 62
7
100
AcDbPolyline
 90
4
 70
1
 10
65.364360
 20
-52.521815
 30
0.0
 10
51.363880
 20
-52.521815
 30
0.0
 10
51.363880
 20
-38.521335
 30
0.0
 10
65.364360
 20
-38.521335
 30
0.0
  0
LWPOLYLINE
  5
111
100
AcDbEntity
  8
0
 62
7
100
AcDbPolyline
 90
4
 70
1
 10
27.264360
 20
-90.621815
 30
0.0
 10
13.263880
 20
-90.621815
 30
0.0
 10
13.263880
 20
-76.621335
 30
0.0
 10
27.264360
 20
-76.621335
 30
0.0
  0
LWPOLYLINE
  5
112
100
AcDbEntity
  8
0
 62
7
100
AcDbPolyline
 90
4
 70
1
 10
117.751860
 20
-33.471815
 30
0.0
 10
103.751380
 20
-33.471815
 30
0.0
 10
103.751380
 20
-19.471335
 30
0.0
 10
117.751860
 20
-19.471335
 30
0.0
  0
LWPOLYLINE
  5
113
100
AcDbEntity
  8
0
 62
7
100
AcDbPolyline
 90
4
 70
1
 10
170.426380
 20
-71.571815
 30
0.0
 10
170.426380
 20
-57.571335
 30
0.0
 10
184.426860
 20
-57.571335
 30
0.0
 10
184.426860
 20
-71.571815
 30
0.0
  0
LWPOLYLINE
  5
114
100
AcDbEntity
  8
0
 62
7
100
AcDbPolyline
 90
4
 70
1
 10
208.526380
 20
-71.571815
 30
0.0
 10
208.526380
 20
-57.571335
 30
0.0
 10
222.526860
 20
-57.571335
 30
0.0
 10
222.526860
 20
-71.571815
 30
0.0
  0
LWPOLYLINE
  5
115
100
AcDbEntity
  8
0
 62
7
100
AcDbPolyline
 90
4
 70
1
 10
222.526860
 20
-90.621815
 30
0.0
 10
208.526380
 20
-90.621815
 30
0.0
 10
208.526380
 20
-76.621335
 30
0.0
 10
222.526860
 20
-76.621335
 30
0.0
  0
LWPOLYLINE
  5
116
100
AcDbEntity
  8
0
 62
7
100
AcDbPolyline
 90
4
 70
1
 10
141.851380
 20
-19.471335
 30
0.0
 10
155.851860
 20
-19.471335
 30
0.0
 10
155.851860
 20
-33.471815
 30
0.0
 10
141.851380
 20
-33.471815
 30
0.0
  0
LWPOLYLINE
  5
117
100
AcDbEntity
  8
0
 62
7
100
AcDbPolyline
 90
4
 70
1
 10
122.801380
 20
-19.471335
 30
0.0
 10
136.801860
 20
-19.471335
 30
0.0
 10
136.801860
 20
-33.471815
 30
0.0
 10
122.801380
 20
-33.471815
 30
0.0
  0
LWPOLYLINE
  5
118
100
AcDbEntity
  8
0
 62
7
100
AcDbPolyline
 90
4
 70
1
 10
46.314360
 20
-52.521815
 30
0.0
 10
32.313880
 20
-52.521815
 30
0.0
 10
32.313880
 20
-38.521335
 30
0.0
 10
46.314360
 20
-38.521335
 30
0.0
  0
LWPOLYLINE
  5
119
100
AcDbEntity
  8
0
 62
7
100
AcDbPolyline
 90
4
 70
1
 10
108.226860
 20
-71.571815
 30
0.0
 10
94.226380
 20
-71.571815
 30
0.0
 10
94.226380
 20
-57.571335
 30
0.0
 10
108.226860
 20
-57.571335
 30
0.0
  0
LWPOLYLINE
  5
11a
100
AcDbEntity
  8
0
 62
7
100
AcDbPolyline
 90
4
 70
1
 10
179.664360
 20
-52.521815
 30
0.0
 10
165.663880
 20
-52.521815
 30
0.0
 10
165.663880
 20
-38.521335
 30
0.0
 10
179.664360
 20
-38.521335
 30
0.0
  0
LWPOLYLINE
  5
11b
100
AcDbEntity
  8
0
 62
7
100
AcDbPolyline
 90
4
 70
1
 10
193.951860
 20
-19.471335
 30
0.0
 10
193.951860
 20
-33.471815
 30
0.0
 10
179.951380
 20
-33.471815
 30
0.0
 10
179.951380
 20
-19.471335
 30
0.0
  0
LWPOLYLINE
  5
11c
100
AcDbEntity
  8
0
 62
7
100
AcDbPolyline
 90
4
 70
1
 10
32.313880
 20
-76.621335
 30
0.0
 10
46.314360
 20
-76.621335
 30
0.0
 10
46.314360
 20
-90.621815
 30
0.0
 10
32.313880
 20
-90.621815
 30
0.0
  0
LWPOLYLINE
  5
11d
100
AcDbEntity
  8
0
 62
7
100
AcDbPolyline
 90
4
 70
1
 10
37.076380
 20
-57.571335
 30
0.0
 10
51.076860
 20
-57.571335
 30
0.0
 10
51.076860
 20
-71.571815
 30
0.0
 10
37.076380
 20
-71.571815
 30
0.0
  0
LWPOLYLINE
  5
11e
100
AcDbEntity
  8
0
 62
7
100
AcDbPolyline
 90
4
 70
1
 10
56.126380
 20
-71.571815
 30
0.0
 10
56.126380
 20
-57.571335
 30
0.0
 10
70.126860
 20
-57.571335
 30
0.0
 10
70.126860
 20
-71.571815
 30
0.0
  0
LWPOLYLINE
  5
11f
100
AcDbEntity
  8
0
 62
7
100
AcDbPolyline
 90
4
 70
1
 10
108.513880
 20
-38.521335
 30
0.0
 10
122.514360
 20
-38.521335
 30
0.0
 10
122.514360
 20
-52.521815
 30
0.0
 10
108.513880
 20
-52.521815
 30
0.0
  0
LWPOLYLINE
  5
120
100
AcDbEntity
  8
0
 62
7
100
AcDbPolyline
 90
4
 70
1
 10
198.714360
 20
-38.521335
 30
0.0
 10
198.714360
 20
-52.521815
 30
0.0
 10
184.713880
 20
-52.521815
 30
0.0
 10
184.713880
 20
-38.521335
 30
0.0
  0
LWPOLYLINE
  5
121
100
AcDbEntity
  8
0
 62
7
100
AcDbPolyline
 90
2
 70
0
 10
10.880799
 20
-38.521335
 30
0.0
 10
24.878739
 20
-38.521335
 30
0.0
  0
LWPOLYLINE
  5
122
100
AcDbEntity
  8
0
 62
7
100
AcDbPolyline
 90
6
 70
0
 10
24.879300
 20
-38.523220
 30
0.0
 10
24.871250
 20
-57.564431
 30
0.0
 10
27.277929
 20
-57.582272
 30
0.0
 10
27.261820
 20
-71.568117
 30
0.0
 10
10.863807
 20
-71.582265
 30
0.0
 10
10.883900
 20
-38.521335
 30
0.0
  0
LWPOLYLINE
  5
123
100
AcDbEntity
  8
0
 62
7
100
AcDbPolyline
 90
4
 70
1
 10
89.176860
 20
-71.571815
 30
0.0
 10
75.176380
 20
-71.571815
 30
0.0
 10
75.176380
 20
-57.571335
 30
0.0
 10
89.176860
 20
-57.571335
 30
0.0
  0
LWPOLYLINE
  5
124
100
AcDbEntity
  8
0
 62
7
100
AcDbPolyline
 90
4
 70
1
 10
89.463880
 20
-52.521815
 30
0.0
 10
89.463880
 20
-38.521335
 30
0.0
 10
103.464360
 20
-38.521335
 30
0.0
 10
103.464360
 20
-52.521815
 30
0.0
  0
LWPOLYLINE
  5
125
100
AcDbEntity
  8
0
 62
7
100
AcDbPolyline
 90
6
 70
1
 10
203.476860
 20
-90.621815
 30
0.0
 10
187.080525
 20
-90.621818
 30
0.0
 10
65.413473
 20
-90.621818
 30
0.0
 10
51.363880
 20
-90.621815
 30
0.0
 10
51.363880
 20
-76.621335
 30
0.0
 10
203.474447
 20
-76.618998
 30
0.0
  0
LWPOLYLINE
  5
126
100
AcDbEntity
  8
0
 62
7
100
AcDbPolyline
 90
4
 70
1
 10
41.551860
 20
-33.471815
 30
0.0
 10
27.551380
 20
-33.471815
 30
0.0
 10
27.551380
 20
-19.471335
 30
0.0
 10
41.551860
 20
-19.471335
 30
0.0
  0
LWPOLYLINE
  5
127
100
AcDbEntity
  8
0
 62
7
100
AcDbPolyline
 90
4
 70
1
 10
160.901380
 20
-33.471815
 30
0.0
 10
160.901380
 20
-19.471335
 30
0.0
 10
174.901860
 20
-19.471335
 30
0.0
 10
174.901860
 20
-33.471815
 30
0.0
  0
SPLINE
  5
128
100
AcDbEntity
  8
0
 62
7
100
AcDbSpline
 70
8
 71
3
 72
8
 73
4
 74
0
 40
0
 40
0
 40
0
 40
0
 40
1
 40
1
 40
1
 40
1
 10
36.932870
 20
-2.660193
 30
0.0
 10
36.275356
 20
-2.660263
 30
0.0
 10
35.742372
 20
-3.193303
 30
0.0
 10
35.742372
 20
-3.850818
 30
0.0
  0
SPLINE
  5
129
100
AcDbEntity
  8
0
 62
7
100
AcDbSpline
 70
8
 71
3
 72
8
 73
4
 74
0
 40
0
 40
0
 40
0
 40
0
 40
1
 40
1
 40
1
 40
1
 10
0.025001
 20
-77.669847
 30
0.0
 10
0.025001
 20
-78.301394
 30
0.0
 10
0.275882
 20
-78.907074
 30
0.0
 10
0.722453
 20
-79.353645
 30
0.0
  0
SPLINE
  5
12a
100
AcDbEntity
  8
0
 62
7
100
AcDbSpline
 70
8
 71
3
 72
8
 73
4
 74
0
 40
0
 40
0
 40
0
 40
0
 40
1
 40
1
 40
1
 40
1
 10
0.722453
 20
-79.353645
 30
0.0
 10
1.169024
 20
-79.800216
 30
0.0
 10
1.774704
 20
-80.051097
 30
0.0
 10
2.406251
 20
-80.051097
 30
0.0
  0
SPLINE
  5
12b
100
AcDbEntity
  8
0
 62
7
100
AcDbSpline
 70
8
 71
3
 72
8
 73
4
 74
0
 40
0
 40
0
 40
0
 40
0
 40
1
 40
1
 40
1
 40
1
 10
252.437392
 20
-80.051097
 30
0.0
 10
253.752222
 20
-80.050676
 30
0.0
 10
254.817880
 20
-78.984678
 30
0.0
 10
254.817880
 20
-77.669847
 30
0.0
  0
LWPOLYLINE
  5
12c
100
AcDbEntity
  8
0
 62
7
100
AcDbPolyline
 90
4
 70
1
 10
113.276380
 20
-57.571335
 30
0.0
 10
127.276860
 20
-57.571335
 30
0.0
 10
127.276860
 20
-71.571815
 30
0.0
 10
113.276380
 20
-71.571815
 30
0.0
  0
LWPOLYLINE
  5
12d
100
AcDbEntity
  8
0
 62
7
100
AcDbPolyline
 90
2
 70
0
 10
254.817880
 20
-16.946575
 30
0.0
 10
254.817880
 20
-77.667815
 30
0.0
  0
LWPOLYLINE
  5
12e
100
AcDbEntity
  8
0
 62
7
100
AcDbPolyline
 90
3
 70
0
 10
252.435360
 20
-80.050335
 30
0.0
 10
250.055380
 20
-80.050335
 30
0.0
 10
250.055380
 20
-94.337835
 30
0.0
  0
LWPOLYLINE
  5
12f
100
AcDbEntity
  8
0
 62
7
100
AcDbPolyline
 90
2
 70
0
 10
7.167880
 20
-96.717815
 30
0.0
 10
247.672860
 20
-96.717815
 30
0.0
  0
LWPOLYLINE
  5
130
100
AcDbEntity
  8
0
 62
7
100
AcDbPolyline
 90
2
 70
0
 10
29.789120
 20
-10.992815
 30
0.0
 10
2.405380
 20
-10.992815
 30
0.0
  0
LWPOLYLINE
  5
131
100
AcDbEntity
  8
0
 62
7
100
AcDbPolyline
 90
2
 70
0
 10
4.785360
 20
-80.050335
 30
0.0
 10
4.785360
 20
-94.337835
 30
0.0
  0
LWPOLYLINE
  5
132
100
AcDbEntity
  8
0
 62
7
100
AcDbPolyline
 90
2
 70
0
 10
0.022860
 20
-77.667815
 30
0.0
 10
0.022860
 20
-16.946575
 30
0.0
  0
LWPOLYLINE
  5
133
100
AcDbEntity
  8
0
 62
7
100
AcDbPolyline
 90
2
 70
0
 10
218.503500
 20
-16.946575
 30
0.0
 10
35.742880
 20
-16.946575
 30
0.0
  0
LWPOLYLINE
  5
134
100
AcDbEntity
  8
0
 62
7
100
AcDbPolyline
 90
2
 70
0
 10
2.405380
 20
-80.050335
 30
0.0
 10
4.785360
 20
-80.050335
 30
0.0
  0
SPLINE
  5
135
100
AcDbEntity
  8
0
 62
7
100
AcDbSpline
 70
8
 71
3
 72
8
 73
4
 74
0
 40
0
 40
0
 40
0
 40
0
 40
1
 40
1
 40
1
 40
1
 10
4.787494
 20
-94.338597
 30
0.0
 10
4.787494
 20
-94.970144
 30
0.0
 10
5.038375
 20
-95.575824
 30
0.0
 10
5.484946
 20
-96.022395
 30
0.0
  0
SPLINE
  5
136
100
AcDbEntity
  8
0
 62
7
100
AcDbSpline
 70
8
 71
3
 72
8
 73
4
 74
0
 40
0
 40
0
 40
0
 40
0
 40
1
 40
1
 40
1
 40
1
 10
5.484946
 20
-96.022395
 30
0.0
 10
5.931517
 20
-96.468966
 30
0.0
 10
6.537197
 20
-96.719847
 30
0.0
 10
7.168744
 20
-96.719847
 30
0.0
  0
SPLINE
  5
137
100
AcDbEntity
  8
0
 62
7
100
AcDbSpline
 70
8
 71
3
 72
8
 73
4
 74
0
 40
0
 40
0
 40
0
 40
0
 40
1
 40
1
 40
1
 40
1
 10
247.674892
 20
-96.719847
 30
0.0
 10
248.306439
 20
-96.719847
 30
0.0
 10
248.912119
 20
-96.468966
 30
0.0
 10
249.358690
 20
-96.022395
 30
0.0
  0
SPLINE
  5
138
100
AcDbEntity
  8
0
 62
7
100
AcDbSpline
 70
8
 71
3
 72
8
 73
4
 74
0
 40
0
 40
0
 40
0
 40
0
 40
1
 40
1
 40
1
 40
1
 10
249.358690
 20
-96.022395
 30
0.0
 10
249.805261
 20
-95.575824
 30
0.0
 10
250.056142
 20
-94.970144
 30
0.0
 10
250.056142
 20
-94.338597
 30
0.0
  0
LWPOLYLINE
  5
139
100
AcDbEntity
  8
0
 62
7
100
AcDbPolyline
 90
2
 70
0
 10
217.312240
 20
-2.659075
 30
0.0
 10
36.931600
 20
-2.659075
 30
0.0
  0
SPLINE
  5
13a
100
AcDbEntity
  8
0
 62
7
100
AcDbSpline
 70
8
 71
3
 72
8
 73
4
 74
0
 40
0
 40
0
 40
0
 40
0
 40
1
 40
1
 40
1
 40
1
 10
254.817880
 20
-13.376199
 30
0.0
 10
254.817880
 20
-12.061368
 30
0.0
 10
253.752222
 20
-10.995370
 30
0.0
 10
252.437392
 20
-10.994949
 30
0.0
  0
LWPOLYLINE
  5
13b
100
AcDbEntity
  8
0
 62
7
100
AcDbPolyline
 90
2
 70
0
 10
0.022860
 20
-13.375335
 30
0.0
 10
0.022860
 20
-16.946575
 30
0.0
  0
LWPOLYLINE
  5
13c
100
AcDbEntity
  8
0
 62
7
100
AcDbPolyline
 90
2
 70
0
 10
223.263460
 20
-10.992815
 30
0.0
 10
252.435360
 20
-10.992815
 30
0.0
  0
SPLINE
  5
13d
100
AcDbEntity
  8
0
 62
7
100
AcDbSpline
 70
8
 71
3
 72
8
 73
4
 74
0
 40
0
 40
0
 40
0
 40
0
 40
1
 40
1
 40
1
 40
1
 10
2.406251
 20
-10.994949
 30
0.0
 10
1.774704
 20
-10.994949
 30
0.0
 10
1.169024
 20
-11.245830
 30
0.0
 10
0.722453
 20
-11.692401
 30
0.0
  0
SPLINE
  5
13e
100
AcDbEntity
  8
0
 62
7
100
AcDbSpline
 70
8
 71
3
 72
8
 73
4
 74
0
 40
0
 40
0
 40
0
 40
0
 40
1
 40
1
 40
1
 40
1
 10
0.722453
 20
-11.692401
 30
0.0
 10
0.275882
 20
-12.138972
 30
0.0
 10
0.025001
 20
-12.744652
 30
0.0
 10
0.025001
 20
-13.376199
 30
0.0
  0
LWPOLYLINE
  5
13f
100
AcDbEntity
  8
0
 62
7
100
AcDbPolyline
 90
2
 70
0
 10
254.817880
 20
-13.375335
 30
0.0
 10
254.817880
 20
-16.946575
 30
0.0
  0
SPLINE
  5
140
100
AcDbEntity
  8
0
 62
7
100
AcDbSpline
 70
8
 71
3
 72
8
 73
4
 74
0
 40
0
 40
0
 40
0
 40
0
 40
1
 40
1
 40
1
 40
1
 10
32.170624
 20
0.911672
 30
0.0
 10
30.855494
 20
0.911666
 30
0.0
 10
29.789374
 20
-0.154459
 30
0.0
 10
29.789374
 20
-1.469588
 30
0.0
  0
LWPOLYLINE
  5
141
100
AcDbEntity
  8
0
 62
7
100
AcDbPolyline
 90
2
 70
0
 10
35.740340
 20
-16.946575
 30
0.0
 10
35.740340
 20
-3.850335
 30
0.0
  0
LWPOLYLINE
  5
142
100
AcDbEntity
  8
0
 62
7
100
AcDbPolyline
 90
2
 70
0
 10
223.263460
 20
0.912165
 30
0.0
 10
32.169100
 20
0.912165
 30
0.0
  0
LWPOLYLINE
  5
143
100
AcDbEntity
  8
0
 62
7
100
AcDbPolyline
 90
2
 70
0
 10
218.500960
 20
-3.850335
 30
0.0
 10
218.503500
 20
-16.946575
 30
0.0
  0
SPLINE
  5
144
100
AcDbEntity
  8
0
 62
7
100
AcDbSpline
 70
8
 71
3
 72
8
 73
4
 74
0
 40
0
 40
0
 40
0
 40
0
 40
1
 40
1
 40
1
 40
1
 10
218.503246
 20
-3.850818
 30
0.0
 10
218.503246
 20
-3.193303
 30
0.0
 10
217.970262
 20
-2.660263
 30
0.0
 10
217.312748
 20
-2.660193
 30
0.0
  0
LWPOLYLINE
  5
145
100
AcDbEntity
  8
0
 62
7
100
AcDbPolyline
 90
2
 70
0
 10
29.789120
 20
-1.467815
 30
0.0
 10
29.789120
 20
-10.992815
 30
0.0
  0
LWPOLYLINE
  5
146
100
AcDbEntity
  8
0
 62
7
100
AcDbPolyline
 90
2
 70
0
 10
223.263460
 20
0.914705
 30
0.0
 10
223.263460
 20
-10.992815
 30
0.0
  0
ENDSEC
  0
SECTION
  2
OBJECTS
  0
DICTIONARY
  5
C
330
0
100
AcDbDictionary
  3
ACAD_GROUP
350
D
  3
ACAD_MLINESTYLE
350
17
  0
DICTIONARY
  5
D
330
C
100
AcDbDictionary
  0
DICTIONARY
  5
1A
330
C
100
AcDbDictionary
  0
DICTIONARY
  5
17
330
C
100
AcDbDictionary
  3
STANDARD
350
18
  0
DICTIONARY
  5
19
330
C
100
AcDbDictionary
  0
ENDSEC
  0
EOF
