  0
SECTION
  2
HEADER
  9
$ACADVER
  1
AC1014
  9
$HANDSEED
  5
FFFF
  9
$MEASUREMENT
 70
     1
  0
ENDSEC
  0
SECTION
  2
TABLES
  0
TABLE
  2
VPORT
  5
8
330
0
100
AcDbSymbolTable
 70
     4
  0
VPORT
  5
2E
330
8
100
AcDbSymbolTableRecord
100
AcDbViewportTableRecord
  2
*ACTIVE
 70
     0
 10
0.0
 20
0.0
 11
1.0
 21
1.0
 12
210.0
 22
148.5
 13
0.0
 23
0.0
 14
10.0
 24
10.0
 15
10.0
 25
10.0
 16
0.0
 26
0.0
 36
1.0
 17
0.0
 27
0.0
 37
0.0
 40
341.0
 41
1.24
 42
50.0
 43
0.0
 44
0.0
 50
0.0
 51
0.0
 71
     0
 72
   100
 73
     1
 74
     3
 75
     0
 76
     0
 77
     0
 78
     0
  0
ENDTAB
  0
TABLE
  2
LTYPE
  5
5
330
0
100
AcDbSymbolTable
 70
     1
  0
LTYPE
  5
14
330
5
100
AcDbSymbolTableRecord
100
AcDbLinetypeTableRecord
  2
BYBLOCK
 70
     0
  3

 72
    65
 73
     0
 40
0.0
  0
LTYPE
  5
15
330
5
100
AcDbSymbolTableRecord
100
AcDbLinetypeTableRecord
  2
BYLAYER
 70
     0
  3

 72
    65
 73
     0
 40
0.0
  0
LTYPE
  5
16
330
5
100
AcDbSymbolTableRecord
100
AcDbLinetypeTableRecord
  2
CONTINUOUS
 70
     0
  3
Solid line
 72
    65
 73
     0
 40
0.0
  0
ENDTAB
  0
TABLE
  2
LAYER
  5
2
100
AcDbSymbolTable
 70
1
  0
LAYER
  5
50
100
AcDbSymbolTableRecord
100
AcDbLayerTableRecord
  2
0
 70
0
  6
CONTINUOUS
  0
ENDTAB
  0
TABLE
  2
STYLE
  5
3
330
0
100
AcDbSymbolTable
 70
     1
  0
STYLE
  5
11
330
3
100
AcDbSymbolTableRecord
100
AcDbTextStyleTableRecord
  2
STANDARD
 70
     0
 40
0.0
 41
1.0
 50
0.0
 71
     0
 42
2.5
  3
txt
  4

  0
ENDTAB
  0
TABLE
  2
VIEW
  5
6
330
0
100
AcDbSymbolTable
 70
     0
  0
ENDTAB
  0
TABLE
  2
UCS
  5
7
330
0
100
AcDbSymbolTable
 70
     0
  0
ENDTAB
  0
TABLE
  2
APPID
  5
9
330
0
100
AcDbSymbolTable
 70
     2
  0
APPID
  5
12
330
9
100
AcDbSymbolTableRecord
100
AcDbRegAppTableRecord
  2
ACAD
 70
     0
  0
ENDTAB
  0
TABLE
  2
DIMSTYLE
  5
A
330
0
100
AcDbSymbolTable
 70
     1
  0
DIMSTYLE
105
27
330
A
100
AcDbSymbolTableRecord
100
AcDbDimStyleTableRecord
  2
ISO-25
 70
     0
  3

  4

  5

  6

  7

 40
1.0
 41
2.5
 42
0.625
 43
3.75
 44
1.25
 45
0.0
 46
0.0
 47
0.0
 48
0.0
140
2.5
141
2.5
142
0.0
143
0.03937007874016
144
1.0
145
0.0
146
1.0
147
0.625
 71
     0
 72
     0
 73
     0
 74
     0
 75
     0
 76
     0
 77
     1
 78
     8
170
     0
171
     3
172
     1
173
     0
174
     0
175
     0
176
     0
177
     0
178
     0
270
     2
271
     2
272
     2
273
     2
274
     3
340
11
275
     0
280
     0
281
     0
282
     0
283
     0
284
     8
285
     0
286
     0
287
     3
288
     0
  0
ENDTAB
  0
TABLE
  2
BLOCK_RECORD
  5
1
330
0
100
AcDbSymbolTable
 70
     1
  0
BLOCK_RECORD
  5
1F
330
1
100
AcDbSymbolTableRecord
100
AcDbBlockTableRecord
  2
*MODEL_SPACE
  0
BLOCK_RECORD
  5
1B
330
1
100
AcDbSymbolTableRecord
100
AcDbBlockTableRecord
  2
*PAPER_SPACE
  0
ENDTAB
  0
ENDSEC
  0
SECTION
  2
BLOCKS
  0
BLOCK
  5
20
330
1F
100
AcDbEntity
  8
0
100
AcDbBlockBegin
  2
*MODEL_SPACE
 70
     0
 10
0.0
 20
0.0
 30
0.0
  3
*MODEL_SPACE
  1

  0
ENDBLK
  5
21
330
1F
100
AcDbEntity
  8
0
100
AcDbBlockEnd
  0
BLOCK
  5
1C
330
1B
100
AcDbEntity
 67
     1
  8
0
100
AcDbBlockBegin
  2
*PAPER_SPACE
  1

  0
ENDBLK
  5
1D
330
1B
100
AcDbEntity
 67
     1
  8
0
100
AcDbBlockEnd
  0
ENDSEC
  0
SECTION
  2
ENTITIES
  0
SPLINE
  5
100
100
AcDbEntity
  8
0
 62
7
100
AcDbSpline
 70
8
 71
3
 72
8
 73
4
 74
0
 40
0
 40
0
 40
0
 40
0
 40
1
 40
1
 40
1
 40
1
 10
48.840644
 20
-34.811045
 30
0.0
 10
50.967491
 20
-34.811020
 30
0.0
 10
52.932778
 20
-33.676361
 30
0.0
 10
53.996201
 20
-31.834458
 30
0.0
  0
SPLINE
  5
101
100
AcDbEntity
  8
0
 62
7
100
AcDbSpline
 70
8
 71
3
 72
8
 73
4
 74
0
 40
0
 40
0
 40
0
 40
0
 40
1
 40
1
 40
1
 40
1
 10
53.996201
 20
-31.834458
 30
0.0
 10
55.059625
 20
-29.992554
 30
0.0
 10
55.059625
 20
-27.723236
 30
0.0
 10
53.996201
 20
-25.881333
 30
0.0
  0
SPLINE
  5
102
100
AcDbEntity
  8
0
 62
7
100
AcDbSpline
 70
8
 71
3
 72
8
 73
4
 74
0
 40
0
 40
0
 40
0
 40
0
 40
1
 40
1
 40
1
 40
1
 10
53.996201
 20
-25.881333
 30
0.0
 10
52.932778
 20
-24.039429
 30
0.0
 10
50.967491
 20
-22.904770
 30
0.0
 10
48.840644
 20
-22.904770
 30
0.0
  0
SPLINE
  5
103
100
AcDbEntity
  8
0
 62
7
100
AcDbSpline
 70
8
 71
3
 72
8
 73
4
 74
0
 40
0
 40
0
 40
0
 40
0
 40
1
 40
1
 40
1
 40
1
 10
48.840136
 20
-14.161376
 30
0.0
 10
48.192997
 20
-14.161376
 30
0.0
 10
47.609579
 20
-14.551204
 30
0.0
 10
47.361929
 20
-15.149082
 30
0.0
  0
SPLINE
  5
104
100
AcDbEntity
  8
0
 62
7
100
AcDbSpline
 70
8
 71
3
 72
8
 73
4
 74
0
 40
0
 40
0
 40
0
 40
0
 40
1
 40
1
 40
1
 40
1
 10
47.361929
 20
-15.149082
 30
0.0
 10
47.114280
 20
-15.746961
 30
0.0
 10
47.251169
 20
-16.435149
 30
0.0
 10
47.708766
 20
-16.892746
 30
0.0
  0
SPLINE
  5
105
100
AcDbEntity
  8
0
 62
7
100
AcDbSpline
 70
8
 71
3
 72
8
 73
4
 74
0
 40
0
 40
0
 40
0
 40
0
 40
1
 40
1
 40
1
 40
1
 10
47.708766
 20
-16.892746
 30
0.0
 10
48.166362
 20
-17.350343
 30
0.0
 10
48.854550
 20
-17.487232
 30
0.0
 10
49.452429
 20
-17.239582
 30
0.0
  0
SPLINE
  5
106
100
AcDbEntity
  8
0
 62
7
100
AcDbSpline
 70
8
 71
3
 72
8
 73
4
 74
0
 40
0
 40
0
 40
0
 40
0
 40
1
 40
1
 40
1
 40
1
 10
49.452429
 20
-17.239582
 30
0.0
 10
50.050308
 20
-16.991933
 30
0.0
 10
50.440135
 20
-16.408515
 30
0.0
 10
50.440135
 20
-15.761376
 30
0.0
  0
SPLINE
  5
107
100
AcDbEntity
  8
0
 62
7
100
AcDbSpline
 70
8
 71
3
 72
8
 73
4
 74
0
 40
0
 40
0
 40
0
 40
0
 40
1
 40
1
 40
1
 40
1
 10
50.440135
 20
-15.761376
 30
0.0
 10
50.440135
 20
-15.337029
 30
0.0
 10
50.271564
 20
-14.930063
 30
0.0
 10
49.971506
 20
-14.630005
 30
0.0
  0
SPLINE
  5
108
100
AcDbEntity
  8
0
 62
7
100
AcDbSpline
 70
8
 71
3
 72
8
 73
4
 74
0
 40
0
 40
0
 40
0
 40
0
 40
1
 40
1
 40
1
 40
1
 10
49.971506
 20
-14.630005
 30
0.0
 10
49.671448
 20
-14.329947
 30
0.0
 10
49.264482
 20
-14.161376
 30
0.0
 10
48.840136
 20
-14.161376
 30
0.0
  0
LWPOLYLINE
  5
109
100
AcDbEntity
  8
0
 62
7
100
AcDbPolyline
 90
2
 70
0
 10
48.839120
 20
-6.830405
 30
0.0
 10
5.976620
 20
-6.830405
 30
0.0
  0
LWPOLYLINE
  5
10a
100
AcDbEntity
  8
0
 62
7
100
AcDbPolyline
 90
1
 70
1
 10
48.840136
 20
-14.161376
 30
0.0
  0
SPLINE
  5
10b
100
AcDbEntity
  8
0
 62
7
100
AcDbSpline
 70
8
 71
3
 72
8
 73
4
 74
0
 40
0
 40
0
 40
0
 40
0
 40
1
 40
1
 40
1
 40
1
 10
5.977611
 20
-14.161376
 30
0.0
 10
5.330471
 20
-14.161376
 30
0.0
 10
4.747053
 20
-14.551204
 30
0.0
 10
4.499404
 20
-15.149082
 30
0.0
  0
SPLINE
  5
10c
100
AcDbEntity
  8
0
 62
7
100
AcDbSpline
 70
8
 71
3
 72
8
 73
4
 74
0
 40
0
 40
0
 40
0
 40
0
 40
1
 40
1
 40
1
 40
1
 10
4.499404
 20
-15.149082
 30
0.0
 10
4.251754
 20
-15.746961
 30
0.0
 10
4.388644
 20
-16.435149
 30
0.0
 10
4.846240
 20
-16.892746
 30
0.0
  0
SPLINE
  5
10d
100
AcDbEntity
  8
0
 62
7
100
AcDbSpline
 70
8
 71
3
 72
8
 73
4
 74
0
 40
0
 40
0
 40
0
 40
0
 40
1
 40
1
 40
1
 40
1
 10
4.846240
 20
-16.892746
 30
0.0
 10
5.303837
 20
-17.350343
 30
0.0
 10
5.992025
 20
-17.487232
 30
0.0
 10
6.589904
 20
-17.239582
 30
0.0
  0
SPLINE
  5
10e
100
AcDbEntity
  8
0
 62
7
100
AcDbSpline
 70
8
 71
3
 72
8
 73
4
 74
0
 40
0
 40
0
 40
0
 40
0
 40
1
 40
1
 40
1
 40
1
 10
6.589904
 20
-17.239582
 30
0.0
 10
7.187783
 20
-16.991933
 30
0.0
 10
7.577610
 20
-16.408515
 30
0.0
 10
7.577610
 20
-15.761376
 30
0.0
  0
SPLINE
  5
10f
100
AcDbEntity
  8
0
 62
7
100
AcDbSpline
 70
8
 71
3
 72
8
 73
4
 74
0
 40
0
 40
0
 40
0
 40
0
 40
1
 40
1
 40
1
 40
1
 10
7.577610
 20
-15.761376
 30
0.0
 10
7.577610
 20
-15.337029
 30
0.0
 10
7.409039
 20
-14.930063
 30
0.0
 10
7.108981
 20
-14.630005
 30
0.0
  0
SPLINE
  5
110
100
AcDbEntity
  8
0
 62
7
100
AcDbSpline
 70
8
 71
3
 72
8
 73
4
 74
0
 40
0
 40
0
 40
0
 40
0
 40
1
 40
1
 40
1
 40
1
 10
7.108981
 20
-14.630005
 30
0.0
 10
6.808923
 20
-14.329947
 30
0.0
 10
6.401957
 20
-14.161376
 30
0.0
 10
5.977611
 20
-14.161376
 30
0.0
  0
LWPOLYLINE
  5
111
100
AcDbEntity
  8
0
 62
7
100
AcDbPolyline
 90
2
 70
0
 10
5.976620
 20
0.314615
 30
0.0
 10
48.839120
 20
0.314615
 30
0.0
  0
SPLINE
  5
112
100
AcDbEntity
  8
0
 62
7
100
AcDbSpline
 70
8
 71
3
 72
8
 73
4
 74
0
 40
0
 40
0
 40
0
 40
0
 40
1
 40
1
 40
1
 40
1
 10
48.840644
 20
-6.831294
 30
0.0
 10
50.116752
 20
-6.831285
 30
0.0
 10
51.295924
 20
-6.150490
 30
0.0
 10
51.933978
 20
-5.045348
 30
0.0
  0
SPLINE
  5
113
100
AcDbEntity
  8
0
 62
7
100
AcDbSpline
 70
8
 71
3
 72
8
 73
4
 74
0
 40
0
 40
0
 40
0
 40
0
 40
1
 40
1
 40
1
 40
1
 10
51.933978
 20
-5.045348
 30
0.0
 10
52.572033
 20
-3.940206
 30
0.0
 10
52.572033
 20
-2.578615
 30
0.0
 10
51.933978
 20
-1.473473
 30
0.0
  0
SPLINE
  5
114
100
AcDbEntity
  8
0
 62
7
100
AcDbSpline
 70
8
 71
3
 72
8
 73
4
 74
0
 40
0
 40
0
 40
0
 40
0
 40
1
 40
1
 40
1
 40
1
 10
51.933978
 20
-1.473473
 30
0.0
 10
51.295924
 20
-0.368331
 30
0.0
 10
50.116752
 20
0.312465
 30
0.0
 10
48.840644
 20
0.312465
 30
0.0
  0
LWPOLYLINE
  5
115
100
AcDbEntity
  8
0
 62
7
100
AcDbPolyline
 90
1
 70
1
 10
5.977611
 20
-14.161376
 30
0.0
  0
LWPOLYLINE
  5
116
100
AcDbEntity
  8
0
 62
7
100
AcDbPolyline
 90
2
 70
0
 10
48.839120
 20
-10.996005
 30
0.0
 10
5.976620
 20
-10.996005
 30
0.0
  0
SPLINE
  5
117
100
AcDbEntity
  8
0
 62
7
100
AcDbSpline
 70
8
 71
3
 72
8
 73
4
 74
0
 40
0
 40
0
 40
0
 40
0
 40
1
 40
1
 40
1
 40
1
 10
5.978119
 20
-10.998469
 30
0.0
 10
4.276641
 20
-10.998469
 30
0.0
 10
2.704411
 20
-11.906197
 30
0.0
 10
1.853673
 20
-13.379719
 30
0.0
  0
SPLINE
  5
118
100
AcDbEntity
  8
0
 62
7
100
AcDbSpline
 70
8
 71
3
 72
8
 73
4
 74
0
 40
0
 40
0
 40
0
 40
0
 40
1
 40
1
 40
1
 40
1
 10
1.853673
 20
-13.379719
 30
0.0
 10
1.002934
 20
-14.853242
 30
0.0
 10
1.002934
 20
-16.668697
 30
0.0
 10
1.853673
 20
-18.142219
 30
0.0
  0
SPLINE
  5
119
100
AcDbEntity
  8
0
 62
7
100
AcDbSpline
 70
8
 71
3
 72
8
 73
4
 74
0
 40
0
 40
0
 40
0
 40
0
 40
1
 40
1
 40
1
 40
1
 10
1.853673
 20
-18.142219
 30
0.0
 10
2.704411
 20
-19.615742
 30
0.0
 10
4.276641
 20
-20.523469
 30
0.0
 10
5.978119
 20
-20.523469
 30
0.0
  0
SPLINE
  5
11a
100
AcDbEntity
  8
0
 62
7
100
AcDbSpline
 70
8
 71
3
 72
8
 73
4
 74
0
 40
0
 40
0
 40
0
 40
0
 40
1
 40
1
 40
1
 40
1
 10
5.978119
 20
0.312474
 30
0.0
 10
4.702011
 20
0.312465
 30
0.0
 10
3.522838
 20
-0.368331
 30
0.0
 10
2.884784
 20
-1.473473
 30
0.0
  0
SPLINE
  5
11b
100
AcDbEntity
  8
0
 62
7
100
AcDbSpline
 70
8
 71
3
 72
8
 73
4
 74
0
 40
0
 40
0
 40
0
 40
0
 40
1
 40
1
 40
1
 40
1
 10
2.884784
 20
-1.473473
 30
0.0
 10
2.246730
 20
-2.578615
 30
0.0
 10
2.246730
 20
-3.940206
 30
0.0
 10
2.884784
 20
-5.045348
 30
0.0
  0
SPLINE
  5
11c
100
AcDbEntity
  8
0
 62
7
100
AcDbSpline
 70
8
 71
3
 72
8
 73
4
 74
0
 40
0
 40
0
 40
0
 40
0
 40
1
 40
1
 40
1
 40
1
 10
2.884784
 20
-5.045348
 30
0.0
 10
3.522838
 20
-6.150490
 30
0.0
 10
4.702011
 20
-6.831285
 30
0.0
 10
5.978119
 20
-6.831285
 30
0.0
  0
SPLINE
  5
11d
100
AcDbEntity
  8
0
 62
7
100
AcDbSpline
 70
8
 71
3
 72
8
 73
4
 74
0
 40
0
 40
0
 40
0
 40
0
 40
1
 40
1
 40
1
 40
1
 10
5.978119
 20
-22.904745
 30
0.0
 10
3.851272
 20
-22.904770
 30
0.0
 10
1.885984
 20
-24.039429
 30
0.0
 10
0.822561
 20
-25.881333
 30
0.0
  0
SPLINE
  5
11e
100
AcDbEntity
  8
0
 62
7
100
AcDbSpline
 70
8
 71
3
 72
8
 73
4
 74
0
 40
0
 40
0
 40
0
 40
0
 40
1
 40
1
 40
1
 40
1
 10
0.822561
 20
-25.881333
 30
0.0
 10
-0.240862
 20
-27.723236
 30
0.0
 10
-0.240862
 20
-29.992554
 30
0.0
 10
0.822561
 20
-31.834458
 30
0.0
  0
SPLINE
  5
11f
100
AcDbEntity
  8
0
 62
7
100
AcDbSpline
 70
8
 71
3
 72
8
 73
4
 74
0
 40
0
 40
0
 40
0
 40
0
 40
1
 40
1
 40
1
 40
1
 10
0.822561
 20
-31.834458
 30
0.0
 10
1.885984
 20
-33.676361
 30
0.0
 10
3.851272
 20
-34.811020
 30
0.0
 10
5.978119
 20
-34.811020
 30
0.0
  0
SPLINE
  5
120
100
AcDbEntity
  8
0
 62
7
100
AcDbSpline
 70
8
 71
3
 72
8
 73
4
 74
0
 40
0
 40
0
 40
0
 40
0
 40
1
 40
1
 40
1
 40
1
 10
48.840644
 20
-20.523469
 30
0.0
 10
50.542121
 20
-20.523469
 30
0.0
 10
52.114351
 20
-19.615742
 30
0.0
 10
52.965090
 20
-18.142219
 30
0.0
  0
SPLINE
  5
121
100
AcDbEntity
  8
0
 62
7
100
AcDbSpline
 70
8
 71
3
 72
8
 73
4
 74
0
 40
0
 40
0
 40
0
 40
0
 40
1
 40
1
 40
1
 40
1
 10
52.965090
 20
-18.142219
 30
0.0
 10
53.815829
 20
-16.668697
 30
0.0
 10
53.815829
 20
-14.853242
 30
0.0
 10
52.965090
 20
-13.379719
 30
0.0
  0
SPLINE
  5
122
100
AcDbEntity
  8
0
 62
7
100
AcDbSpline
 70
8
 71
3
 72
8
 73
4
 74
0
 40
0
 40
0
 40
0
 40
0
 40
1
 40
1
 40
1
 40
1
 10
52.965090
 20
-13.379719
 30
0.0
 10
52.114351
 20
-11.906197
 30
0.0
 10
50.542121
 20
-10.998469
 30
0.0
 10
48.840644
 20
-10.998469
 30
0.0
  0
LWPOLYLINE
  5
123
100
AcDbEntity
  8
0
 62
7
100
AcDbPolyline
 90
2
 70
0
 10
5.976620
 20
-34.808505
 30
0.0
 10
48.839120
 20
-34.808505
 30
0.0
  0
LWPOLYLINE
  5
124
100
AcDbEntity
  8
0
 62
7
100
AcDbPolyline
 90
2
 70
0
 10
48.839120
 20
-22.903525
 30
0.0
 10
5.976620
 20
-22.903525
 30
0.0
  0
SPLINE
  5
125
100
AcDbEntity
  8
0
 62
7
100
AcDbSpline
 70
8
 71
3
 72
8
 73
4
 74
0
 40
0
 40
0
 40
0
 40
0
 40
1
 40
1
 40
1
 40
1
 10
5.978119
 20
-27.257794
 30
0.0
 10
5.330979
 20
-27.257794
 30
0.0
 10
4.747561
 20
-27.647621
 30
0.0
 10
4.499912
 20
-28.245500
 30
0.0
  0
SPLINE
  5
126
100
AcDbEntity
  8
0
 62
7
100
AcDbSpline
 70
8
 71
3
 72
8
 73
4
 74
0
 40
0
 40
0
 40
0
 40
0
 40
1
 40
1
 40
1
 40
1
 10
4.499912
 20
-28.245500
 30
0.0
 10
4.252262
 20
-28.843379
 30
0.0
 10
4.389152
 20
-29.531567
 30
0.0
 10
4.846748
 20
-29.989164
 30
0.0
  0
SPLINE
  5
127
100
AcDbEntity
  8
0
 62
7
100
AcDbSpline
 70
8
 71
3
 72
8
 73
4
 74
0
 40
0
 40
0
 40
0
 40
0
 40
1
 40
1
 40
1
 40
1
 10
4.846748
 20
-29.989164
 30
0.0
 10
5.304345
 20
-30.446760
 30
0.0
 10
5.992533
 20
-30.583650
 30
0.0
 10
6.590412
 20
-30.336000
 30
0.0
  0
SPLINE
  5
128
100
AcDbEntity
  8
0
 62
7
100
AcDbSpline
 70
8
 71
3
 72
8
 73
4
 74
0
 40
0
 40
0
 40
0
 40
0
 40
1
 40
1
 40
1
 40
1
 10
6.590412
 20
-30.336000
 30
0.0
 10
7.188291
 20
-30.088351
 30
0.0
 10
7.578118
 20
-29.504933
 30
0.0
 10
7.578118
 20
-28.857793
 30
0.0
  0
SPLINE
  5
129
100
AcDbEntity
  8
0
 62
7
100
AcDbSpline
 70
8
 71
3
 72
8
 73
4
 74
0
 40
0
 40
0
 40
0
 40
0
 40
1
 40
1
 40
1
 40
1
 10
7.578118
 20
-28.857793
 30
0.0
 10
7.578118
 20
-28.433447
 30
0.0
 10
7.409547
 20
-28.026481
 30
0.0
 10
7.109489
 20
-27.726423
 30
0.0
  0
SPLINE
  5
12a
100
AcDbEntity
  8
0
 62
7
100
AcDbSpline
 70
8
 71
3
 72
8
 73
4
 74
0
 40
0
 40
0
 40
0
 40
0
 40
1
 40
1
 40
1
 40
1
 10
7.109489
 20
-27.726423
 30
0.0
 10
6.809431
 20
-27.426365
 30
0.0
 10
6.402465
 20
-27.257794
 30
0.0
 10
5.978119
 20
-27.257794
 30
0.0
  0
LWPOLYLINE
  5
12b
100
AcDbEntity
  8
0
 62
7
100
AcDbPolyline
 90
2
 70
0
 10
5.976620
 20
-20.521005
 30
0.0
 10
48.839120
 20
-20.521005
 30
0.0
  0
SPLINE
  5
12c
100
AcDbEntity
  8
0
 62
7
100
AcDbSpline
 70
8
 71
3
 72
8
 73
4
 74
0
 40
0
 40
0
 40
0
 40
0
 40
1
 40
1
 40
1
 40
1
 10
48.840644
 20
-27.257794
 30
0.0
 10
48.193505
 20
-27.257794
 30
0.0
 10
47.610087
 20
-27.647621
 30
0.0
 10
47.362437
 20
-28.245500
 30
0.0
  0
SPLINE
  5
12d
100
AcDbEntity
  8
0
 62
7
100
AcDbSpline
 70
8
 71
3
 72
8
 73
4
 74
0
 40
0
 40
0
 40
0
 40
0
 40
1
 40
1
 40
1
 40
1
 10
47.362437
 20
-28.245500
 30
0.0
 10
47.114788
 20
-28.843379
 30
0.0
 10
47.251677
 20
-29.531567
 30
0.0
 10
47.709274
 20
-29.989164
 30
0.0
  0
SPLINE
  5
12e
100
AcDbEntity
  8
0
 62
7
100
AcDbSpline
 70
8
 71
3
 72
8
 73
4
 74
0
 40
0
 40
0
 40
0
 40
0
 40
1
 40
1
 40
1
 40
1
 10
47.709274
 20
-29.989164
 30
0.0
 10
48.166870
 20
-30.446760
 30
0.0
 10
48.855058
 20
-30.583650
 30
0.0
 10
49.452937
 20
-30.336000
 30
0.0
  0
SPLINE
  5
12f
100
AcDbEntity
  8
0
 62
7
100
AcDbSpline
 70
8
 71
3
 72
8
 73
4
 74
0
 40
0
 40
0
 40
0
 40
0
 40
1
 40
1
 40
1
 40
1
 10
49.452937
 20
-30.336000
 30
0.0
 10
50.050816
 20
-30.088351
 30
0.0
 10
50.440643
 20
-29.504933
 30
0.0
 10
50.440643
 20
-28.857793
 30
0.0
  0
SPLINE
  5
130
100
AcDbEntity
  8
0
 62
7
100
AcDbSpline
 70
8
 71
3
 72
8
 73
4
 74
0
 40
0
 40
0
 40
0
 40
0
 40
1
 40
1
 40
1
 40
1
 10
50.440643
 20
-28.857793
 30
0.0
 10
50.440643
 20
-27.974138
 30
0.0
 10
49.724299
 20
-27.257794
 30
0.0
 10
48.840644
 20
-27.257794
 30
0.0
  0
LWPOLYLINE
  5
131
100
AcDbEntity
  8
0
 62
7
100
AcDbPolyline
 90
1
 70
1
 10
5.978119
 20
-27.257794
 30
0.0
  0
SPLINE
  5
132
100
AcDbEntity
  8
0
 62
7
100
AcDbSpline
 70
8
 71
3
 72
8
 73
4
 74
0
 40
0
 40
0
 40
0
 40
0
 40
1
 40
1
 40
1
 40
1
 10
5.977611
 20
-2.259800
 30
0.0
 10
5.573148
 20
-2.259800
 30
0.0
 10
5.208512
 20
-2.503442
 30
0.0
 10
5.053731
 20
-2.877117
 30
0.0
  0
SPLINE
  5
133
100
AcDbEntity
  8
0
 62
7
100
AcDbSpline
 70
8
 71
3
 72
8
 73
4
 74
0
 40
0
 40
0
 40
0
 40
0
 40
1
 40
1
 40
1
 40
1
 10
5.053731
 20
-2.877117
 30
0.0
 10
4.898949
 20
-3.250791
 30
0.0
 10
4.984505
 20
-3.680909
 30
0.0
 10
5.270503
 20
-3.966908
 30
0.0
  0
SPLINE
  5
134
100
AcDbEntity
  8
0
 62
7
100
AcDbSpline
 70
8
 71
3
 72
8
 73
4
 74
0
 40
0
 40
0
 40
0
 40
0
 40
1
 40
1
 40
1
 40
1
 10
5.270503
 20
-3.966908
 30
0.0
 10
5.556502
 20
-4.252906
 30
0.0
 10
5.986620
 20
-4.338462
 30
0.0
 10
6.360294
 20
-4.183680
 30
0.0
  0
SPLINE
  5
135
100
AcDbEntity
  8
0
 62
7
100
AcDbSpline
 70
8
 71
3
 72
8
 73
4
 74
0
 40
0
 40
0
 40
0
 40
0
 40
1
 40
1
 40
1
 40
1
 10
6.360294
 20
-4.183680
 30
0.0
 10
6.733969
 20
-4.028899
 30
0.0
 10
6.977611
 20
-3.664263
 30
0.0
 10
6.977611
 20
-3.259800
 30
0.0
  0
SPLINE
  5
136
100
AcDbEntity
  8
0
 62
7
100
AcDbSpline
 70
8
 71
3
 72
8
 73
4
 74
0
 40
0
 40
0
 40
0
 40
0
 40
1
 40
1
 40
1
 40
1
 10
6.977611
 20
-3.259800
 30
0.0
 10
6.977611
 20
-2.994584
 30
0.0
 10
6.872254
 20
-2.740230
 30
0.0
 10
6.684718
 20
-2.552693
 30
0.0
  0
SPLINE
  5
137
100
AcDbEntity
  8
0
 62
7
100
AcDbSpline
 70
8
 71
3
 72
8
 73
4
 74
0
 40
0
 40
0
 40
0
 40
0
 40
1
 40
1
 40
1
 40
1
 10
6.684718
 20
-2.552693
 30
0.0
 10
6.497181
 20
-2.365157
 30
0.0
 10
6.242827
 20
-2.259800
 30
0.0
 10
5.977611
 20
-2.259800
 30
0.0
  0
LWPOLYLINE
  5
138
100
AcDbEntity
  8
0
 62
7
100
AcDbPolyline
 90
1
 70
1
 10
48.840644
 20
-27.257794
 30
0.0
  0
SPLINE
  5
139
100
AcDbEntity
  8
0
 62
7
100
AcDbSpline
 70
8
 71
3
 72
8
 73
4
 74
0
 40
0
 40
0
 40
0
 40
0
 40
1
 40
1
 40
1
 40
1
 10
48.840136
 20
-2.259800
 30
0.0
 10
48.435674
 20
-2.259800
 30
0.0
 10
48.071037
 20
-2.503442
 30
0.0
 10
47.916256
 20
-2.877117
 30
0.0
  0
SPLINE
  5
13a
100
AcDbEntity
  8
0
 62
7
100
AcDbSpline
 70
8
 71
3
 72
8
 73
4
 74
0
 40
0
 40
0
 40
0
 40
0
 40
1
 40
1
 40
1
 40
1
 10
47.916256
 20
-2.877117
 30
0.0
 10
47.761475
 20
-3.250791
 30
0.0
 10
47.847031
 20
-3.680909
 30
0.0
 10
48.133029
 20
-3.966908
 30
0.0
  0
SPLINE
  5
13b
100
AcDbEntity
  8
0
 62
7
100
AcDbSpline
 70
8
 71
3
 72
8
 73
4
 74
0
 40
0
 40
0
 40
0
 40
0
 40
1
 40
1
 40
1
 40
1
 10
48.133029
 20
-3.966908
 30
0.0
 10
48.419027
 20
-4.252906
 30
0.0
 10
48.849145
 20
-4.338462
 30
0.0
 10
49.222820
 20
-4.183680
 30
0.0
  0
SPLINE
  5
13c
100
AcDbEntity
  8
0
 62
7
100
AcDbSpline
 70
8
 71
3
 72
8
 73
4
 74
0
 40
0
 40
0
 40
0
 40
0
 40
1
 40
1
 40
1
 40
1
 10
49.222820
 20
-4.183680
 30
0.0
 10
49.596494
 20
-4.028899
 30
0.0
 10
49.840137
 20
-3.664263
 30
0.0
 10
49.840137
 20
-3.259800
 30
0.0
  0
SPLINE
  5
13d
100
AcDbEntity
  8
0
 62
7
100
AcDbSpline
 70
8
 71
3
 72
8
 73
4
 74
0
 40
0
 40
0
 40
0
 40
0
 40
1
 40
1
 40
1
 40
1
 10
49.840137
 20
-3.259800
 30
0.0
 10
49.840137
 20
-2.994584
 30
0.0
 10
49.734780
 20
-2.740230
 30
0.0
 10
49.547243
 20
-2.552693
 30
0.0
  0
SPLINE
  5
13e
100
AcDbEntity
  8
0
 62
7
100
AcDbSpline
 70
8
 71
3
 72
8
 73
4
 74
0
 40
0
 40
0
 40
0
 40
0
 40
1
 40
1
 40
1
 40
1
 10
49.547243
 20
-2.552693
 30
0.0
 10
49.359707
 20
-2.365157
 30
0.0
 10
49.105353
 20
-2.259800
 30
0.0
 10
48.840136
 20
-2.259800
 30
0.0
  0
LWPOLYLINE
  5
13f
100
AcDbEntity
  8
0
 62
7
100
AcDbPolyline
 90
1
 70
1
 10
5.977611
 20
-2.259800
 30
0.0
  0
LWPOLYLINE
  5
140
100
AcDbEntity
  8
0
 62
7
100
AcDbPolyline
 90
1
 70
1
 10
48.840136
 20
-2.259800
 30
0.0
  0
ENDSEC
  0
SECTION
  2
OBJECTS
  0
DICTIONARY
  5
C
330
0
100
AcDbDictionary
  3
ACAD_GROUP
350
D
  3
ACAD_MLINESTYLE
350
17
  0
DICTIONARY
  5
D
330
C
100
AcDbDictionary
  0
DICTIONARY
  5
1A
330
C
100
AcDbDictionary
  0
DICTIONARY
  5
17
330
C
100
AcDbDictionary
  3
STANDARD
350
18
  0
DICTIONARY
  5
19
330
C
100
AcDbDictionary
  0
ENDSEC
  0
EOF
