  0
SECTION
  2
HEADER
  9
$ACADVER
  1
AC1014
  9
$HANDSEED
  5
FFFF
  9
$MEASUREMENT
 70
     1
  0
ENDSEC
  0
SECTION
  2
TABLES
  0
TABLE
  2
VPORT
  5
8
330
0
100
AcDbSymbolTable
 70
     4
  0
VPORT
  5
2E
330
8
100
AcDbSymbolTableRecord
100
AcDbViewportTableRecord
  2
*ACTIVE
 70
     0
 10
0.0
 20
0.0
 11
1.0
 21
1.0
 12
210.0
 22
148.5
 13
0.0
 23
0.0
 14
10.0
 24
10.0
 15
10.0
 25
10.0
 16
0.0
 26
0.0
 36
1.0
 17
0.0
 27
0.0
 37
0.0
 40
341.0
 41
1.24
 42
50.0
 43
0.0
 44
0.0
 50
0.0
 51
0.0
 71
     0
 72
   100
 73
     1
 74
     3
 75
     0
 76
     0
 77
     0
 78
     0
  0
ENDTAB
  0
TABLE
  2
LTYPE
  5
5
330
0
100
AcDbSymbolTable
 70
     1
  0
LTYPE
  5
14
330
5
100
AcDbSymbolTableRecord
100
AcDbLinetypeTableRecord
  2
BYBLOCK
 70
     0
  3

 72
    65
 73
     0
 40
0.0
  0
LTYPE
  5
15
330
5
100
AcDbSymbolTableRecord
100
AcDbLinetypeTableRecord
  2
BYLAYER
 70
     0
  3

 72
    65
 73
     0
 40
0.0
  0
LTYPE
  5
16
330
5
100
AcDbSymbolTableRecord
100
AcDbLinetypeTableRecord
  2
CONTINUOUS
 70
     0
  3
Solid line
 72
    65
 73
     0
 40
0.0
  0
ENDTAB
  0
TABLE
  2
LAYER
  5
2
100
AcDbSymbolTable
 70
1
  0
LAYER
  5
50
100
AcDbSymbolTableRecord
100
AcDbLayerTableRecord
  2
0
 70
0
  6
CONTINUOUS
  0
ENDTAB
  0
TABLE
  2
STYLE
  5
3
330
0
100
AcDbSymbolTable
 70
     1
  0
STYLE
  5
11
330
3
100
AcDbSymbolTableRecord
100
AcDbTextStyleTableRecord
  2
STANDARD
 70
     0
 40
0.0
 41
1.0
 50
0.0
 71
     0
 42
2.5
  3
txt
  4

  0
ENDTAB
  0
TABLE
  2
VIEW
  5
6
330
0
100
AcDbSymbolTable
 70
     0
  0
ENDTAB
  0
TABLE
  2
UCS
  5
7
330
0
100
AcDbSymbolTable
 70
     0
  0
ENDTAB
  0
TABLE
  2
APPID
  5
9
330
0
100
AcDbSymbolTable
 70
     2
  0
APPID
  5
12
330
9
100
AcDbSymbolTableRecord
100
AcDbRegAppTableRecord
  2
ACAD
 70
     0
  0
ENDTAB
  0
TABLE
  2
DIMSTYLE
  5
A
330
0
100
AcDbSymbolTable
 70
     1
  0
DIMSTYLE
105
27
330
A
100
AcDbSymbolTableRecord
100
AcDbDimStyleTableRecord
  2
ISO-25
 70
     0
  3

  4

  5

  6

  7

 40
1.0
 41
2.5
 42
0.625
 43
3.75
 44
1.25
 45
0.0
 46
0.0
 47
0.0
 48
0.0
140
2.5
141
2.5
142
0.0
143
0.03937007874016
144
1.0
145
0.0
146
1.0
147
0.625
 71
     0
 72
     0
 73
     0
 74
     0
 75
     0
 76
     0
 77
     1
 78
     8
170
     0
171
     3
172
     1
173
     0
174
     0
175
     0
176
     0
177
     0
178
     0
270
     2
271
     2
272
     2
273
     2
274
     3
340
11
275
     0
280
     0
281
     0
282
     0
283
     0
284
     8
285
     0
286
     0
287
     3
288
     0
  0
ENDTAB
  0
TABLE
  2
BLOCK_RECORD
  5
1
330
0
100
AcDbSymbolTable
 70
     1
  0
BLOCK_RECORD
  5
1F
330
1
100
AcDbSymbolTableRecord
100
AcDbBlockTableRecord
  2
*MODEL_SPACE
  0
BLOCK_RECORD
  5
1B
330
1
100
AcDbSymbolTableRecord
100
AcDbBlockTableRecord
  2
*PAPER_SPACE
  0
ENDTAB
  0
ENDSEC
  0
SECTION
  2
BLOCKS
  0
BLOCK
  5
20
330
1F
100
AcDbEntity
  8
0
100
AcDbBlockBegin
  2
*MODEL_SPACE
 70
     0
 10
0.0
 20
0.0
 30
0.0
  3
*MODEL_SPACE
  1

  0
ENDBLK
  5
21
330
1F
100
AcDbEntity
  8
0
100
AcDbBlockEnd
  0
BLOCK
  5
1C
330
1B
100
AcDbEntity
 67
     1
  8
0
100
AcDbBlockBegin
  2
*PAPER_SPACE
  1

  0
ENDBLK
  5
1D
330
1B
100
AcDbEntity
 67
     1
  8
0
100
AcDbBlockEnd
  0
ENDSEC
  0
SECTION
  2
ENTITIES
  0
SPLINE
  5
100
100
AcDbEntity
  8
0
 62
7
100
AcDbSpline
 70
8
 71
3
 72
8
 73
4
 74
0
 40
0
 40
0
 40
0
 40
0
 40
1
 40
1
 40
1
 40
1
 10
2.406251
 20
1.072767
 30
0.0
 10
1.774704
 20
1.072767
 30
0.0
 10
1.169024
 20
0.821886
 30
0.0
 10
0.722453
 20
0.375315
 30
0.0
  0
SPLINE
  5
101
100
AcDbEntity
  8
0
 62
7
100
AcDbSpline
 70
8
 71
3
 72
8
 73
4
 74
0
 40
0
 40
0
 40
0
 40
0
 40
1
 40
1
 40
1
 40
1
 10
0.722453
 20
0.375315
 30
0.0
 10
0.275882
 20
-0.071256
 30
0.0
 10
0.025001
 20
-0.676937
 30
0.0
 10
0.025001
 20
-1.308484
 30
0.0
  0
SPLINE
  5
102
100
AcDbEntity
  8
0
 62
7
100
AcDbSpline
 70
8
 71
3
 72
8
 73
4
 74
0
 40
0
 40
0
 40
0
 40
0
 40
1
 40
1
 40
1
 40
1
 10
266.725400
 20
-1.308494
 30
0.0
 10
266.725400
 20
0.006139
 30
0.0
 10
265.660052
 20
1.072056
 30
0.0
 10
264.345420
 20
1.072757
 30
0.0
  0
SPLINE
  5
103
100
AcDbEntity
  8
0
 62
7
100
AcDbSpline
 70
8
 71
3
 72
8
 73
4
 74
0
 40
0
 40
0
 40
0
 40
0
 40
1
 40
1
 40
1
 40
1
 10
259.582920
 20
-3.371820
 30
0.0
 10
258.091754
 20
-3.371820
 30
0.0
 10
256.882925
 20
-4.580648
 30
0.0
 10
256.882925
 20
-6.071814
 30
0.0
  0
SPLINE
  5
104
100
AcDbEntity
  8
0
 62
7
100
AcDbSpline
 70
8
 71
3
 72
8
 73
4
 74
0
 40
0
 40
0
 40
0
 40
0
 40
1
 40
1
 40
1
 40
1
 10
256.882925
 20
-6.071814
 30
0.0
 10
256.882925
 20
-7.562980
 30
0.0
 10
258.091754
 20
-8.771809
 30
0.0
 10
259.582920
 20
-8.771809
 30
0.0
  0
SPLINE
  5
105
100
AcDbEntity
  8
0
 62
7
100
AcDbSpline
 70
8
 71
3
 72
8
 73
4
 74
0
 40
0
 40
0
 40
0
 40
0
 40
1
 40
1
 40
1
 40
1
 10
259.582920
 20
-8.771809
 30
0.0
 10
261.074086
 20
-8.771809
 30
0.0
 10
262.282915
 20
-7.562980
 30
0.0
 10
262.282915
 20
-6.071814
 30
0.0
  0
SPLINE
  5
106
100
AcDbEntity
  8
0
 62
7
100
AcDbSpline
 70
8
 71
3
 72
8
 73
4
 74
0
 40
0
 40
0
 40
0
 40
0
 40
1
 40
1
 40
1
 40
1
 10
262.282915
 20
-6.071814
 30
0.0
 10
262.282915
 20
-5.355731
 30
0.0
 10
261.998452
 20
-4.668977
 30
0.0
 10
261.492104
 20
-4.162630
 30
0.0
  0
SPLINE
  5
107
100
AcDbEntity
  8
0
 62
7
100
AcDbSpline
 70
8
 71
3
 72
8
 73
4
 74
0
 40
0
 40
0
 40
0
 40
0
 40
1
 40
1
 40
1
 40
1
 10
261.492104
 20
-4.162630
 30
0.0
 10
260.985757
 20
-3.656282
 30
0.0
 10
260.299003
 20
-3.371820
 30
0.0
 10
259.582920
 20
-3.371820
 30
0.0
  0
SPLINE
  5
108
100
AcDbEntity
  8
0
 62
7
100
AcDbSpline
 70
8
 71
3
 72
8
 73
4
 74
0
 40
0
 40
0
 40
0
 40
0
 40
1
 40
1
 40
1
 40
1
 10
0.026476
 20
-110.846890
 30
0.0
 10
0.026476
 20
-111.478437
 30
0.0
 10
0.277357
 20
-112.084118
 30
0.0
 10
0.723928
 20
-112.530689
 30
0.0
  0
SPLINE
  5
109
100
AcDbEntity
  8
0
 62
7
100
AcDbSpline
 70
8
 71
3
 72
8
 73
4
 74
0
 40
0
 40
0
 40
0
 40
0
 40
1
 40
1
 40
1
 40
1
 10
0.723928
 20
-112.530689
 30
0.0
 10
1.170500
 20
-112.977260
 30
0.0
 10
1.776180
 20
-113.228141
 30
0.0
 10
2.407727
 20
-113.228140
 30
0.0
  0
SPLINE
  5
10a
100
AcDbEntity
  8
0
 62
7
100
AcDbSpline
 70
8
 71
3
 72
8
 73
4
 74
0
 40
0
 40
0
 40
0
 40
0
 40
1
 40
1
 40
1
 40
1
 10
42.887646
 20
-108.060508
 30
0.0
 10
42.483184
 20
-108.060508
 30
0.0
 10
42.118547
 20
-108.304150
 30
0.0
 10
41.963766
 20
-108.677825
 30
0.0
  0
SPLINE
  5
10b
100
AcDbEntity
  8
0
 62
7
100
AcDbSpline
 70
8
 71
3
 72
8
 73
4
 74
0
 40
0
 40
0
 40
0
 40
0
 40
1
 40
1
 40
1
 40
1
 10
41.963766
 20
-108.677825
 30
0.0
 10
41.808985
 20
-109.051499
 30
0.0
 10
41.894541
 20
-109.481617
 30
0.0
 10
42.180539
 20
-109.767615
 30
0.0
  0
SPLINE
  5
10c
100
AcDbEntity
  8
0
 62
7
100
AcDbSpline
 70
8
 71
3
 72
8
 73
4
 74
0
 40
0
 40
0
 40
0
 40
0
 40
1
 40
1
 40
1
 40
1
 10
42.180539
 20
-109.767615
 30
0.0
 10
42.466537
 20
-110.053614
 30
0.0
 10
42.896655
 20
-110.139169
 30
0.0
 10
43.270330
 20
-109.984388
 30
0.0
  0
SPLINE
  5
10d
100
AcDbEntity
  8
0
 62
7
100
AcDbSpline
 70
8
 71
3
 72
8
 73
4
 74
0
 40
0
 40
0
 40
0
 40
0
 40
1
 40
1
 40
1
 40
1
 10
43.270330
 20
-109.984388
 30
0.0
 10
43.644004
 20
-109.829607
 30
0.0
 10
43.887647
 20
-109.464971
 30
0.0
 10
43.887647
 20
-109.060508
 30
0.0
  0
SPLINE
  5
10e
100
AcDbEntity
  8
0
 62
7
100
AcDbSpline
 70
8
 71
3
 72
8
 73
4
 74
0
 40
0
 40
0
 40
0
 40
0
 40
1
 40
1
 40
1
 40
1
 10
43.887647
 20
-109.060508
 30
0.0
 10
43.887647
 20
-108.795292
 30
0.0
 10
43.782290
 20
-108.540938
 30
0.0
 10
43.594753
 20
-108.353401
 30
0.0
  0
SPLINE
  5
10f
100
AcDbEntity
  8
0
 62
7
100
AcDbSpline
 70
8
 71
3
 72
8
 73
4
 74
0
 40
0
 40
0
 40
0
 40
0
 40
1
 40
1
 40
1
 40
1
 10
43.594753
 20
-108.353401
 30
0.0
 10
43.407217
 20
-108.165865
 30
0.0
 10
43.152863
 20
-108.060508
 30
0.0
 10
42.887646
 20
-108.060508
 30
0.0
  0
LWPOLYLINE
  5
110
100
AcDbEntity
  8
0
 62
7
100
AcDbPolyline
 90
1
 70
1
 10
259.582920
 20
-3.371820
 30
0.0
  0
LWPOLYLINE
  5
111
100
AcDbEntity
  8
0
 62
7
100
AcDbPolyline
 90
1
 70
1
 10
42.887646
 20
-108.060508
 30
0.0
  0
SPLINE
  5
112
100
AcDbEntity
  8
0
 62
7
100
AcDbSpline
 70
8
 71
3
 72
8
 73
4
 74
0
 40
0
 40
0
 40
0
 40
0
 40
1
 40
1
 40
1
 40
1
 10
7.170217
 20
-103.384396
 30
0.0
 10
6.078171
 20
-103.384396
 30
0.0
 10
5.093655
 20
-104.042228
 30
0.0
 10
4.675747
 20
-105.051147
 30
0.0
  0
SPLINE
  5
113
100
AcDbEntity
  8
0
 62
7
100
AcDbSpline
 70
8
 71
3
 72
8
 73
4
 74
0
 40
0
 40
0
 40
0
 40
0
 40
1
 40
1
 40
1
 40
1
 10
4.675747
 20
-105.051147
 30
0.0
 10
4.257839
 20
-106.060066
 30
0.0
 10
4.488839
 20
-107.221382
 30
0.0
 10
5.261032
 20
-107.993575
 30
0.0
  0
SPLINE
  5
114
100
AcDbEntity
  8
0
 62
7
100
AcDbSpline
 70
8
 71
3
 72
8
 73
4
 74
0
 40
0
 40
0
 40
0
 40
0
 40
1
 40
1
 40
1
 40
1
 10
5.261032
 20
-107.993575
 30
0.0
 10
6.033225
 20
-108.765768
 30
0.0
 10
7.194541
 20
-108.996768
 30
0.0
 10
8.203460
 20
-108.578860
 30
0.0
  0
SPLINE
  5
115
100
AcDbEntity
  8
0
 62
7
100
AcDbSpline
 70
8
 71
3
 72
8
 73
4
 74
0
 40
0
 40
0
 40
0
 40
0
 40
1
 40
1
 40
1
 40
1
 10
8.203460
 20
-108.578860
 30
0.0
 10
9.212379
 20
-108.160952
 30
0.0
 10
9.870211
 20
-107.176436
 30
0.0
 10
9.870211
 20
-106.084390
 30
0.0
  0
SPLINE
  5
116
100
AcDbEntity
  8
0
 62
7
100
AcDbSpline
 70
8
 71
3
 72
8
 73
4
 74
0
 40
0
 40
0
 40
0
 40
0
 40
1
 40
1
 40
1
 40
1
 10
9.870211
 20
-106.084390
 30
0.0
 10
9.870211
 20
-105.368307
 30
0.0
 10
9.585748
 20
-104.681553
 30
0.0
 10
9.079401
 20
-104.175206
 30
0.0
  0
SPLINE
  5
117
100
AcDbEntity
  8
0
 62
7
100
AcDbSpline
 70
8
 71
3
 72
8
 73
4
 74
0
 40
0
 40
0
 40
0
 40
0
 40
1
 40
1
 40
1
 40
1
 10
9.079401
 20
-104.175206
 30
0.0
 10
8.573054
 20
-103.668859
 30
0.0
 10
7.886300
 20
-103.384396
 30
0.0
 10
7.170217
 20
-103.384396
 30
0.0
  0
LWPOLYLINE
  5
118
100
AcDbEntity
  8
0
 62
7
100
AcDbPolyline
 90
2
 70
0
 10
250.055380
 20
-101.320112
 30
0.0
 10
250.055380
 20
-82.270112
 30
0.0
  0
SPLINE
  5
119
100
AcDbEntity
  8
0
 62
7
100
AcDbSpline
 70
8
 71
3
 72
8
 73
4
 74
0
 40
0
 40
0
 40
0
 40
0
 40
1
 40
1
 40
1
 40
1
 10
264.345420
 20
-113.228140
 30
0.0
 10
265.660052
 20
-113.227439
 30
0.0
 10
266.725400
 20
-112.161523
 30
0.0
 10
266.725400
 20
-110.846890
 30
0.0
  0
LWPOLYLINE
  5
11a
100
AcDbEntity
  8
0
 62
7
100
AcDbPolyline
 90
1
 70
1
 10
7.170217
 20
-103.384396
 30
0.0
  0
LWPOLYLINE
  5
11b
100
AcDbEntity
  8
0
 62
7
100
AcDbPolyline
 90
2
 70
0
 10
224.457260
 20
-12.023872
 30
0.0
 10
224.457260
 20
-25.120112
 30
0.0
  0
SPLINE
  5
11c
100
AcDbEntity
  8
0
 62
7
100
AcDbSpline
 70
8
 71
3
 72
8
 73
4
 74
0
 40
0
 40
0
 40
0
 40
0
 40
1
 40
1
 40
1
 40
1
 10
259.582920
 20
-103.384396
 30
0.0
 10
258.091754
 20
-103.384396
 30
0.0
 10
256.882925
 20
-104.593224
 30
0.0
 10
256.882925
 20
-106.084390
 30
0.0
  0
SPLINE
  5
11d
100
AcDbEntity
  8
0
 62
7
100
AcDbSpline
 70
8
 71
3
 72
8
 73
4
 74
0
 40
0
 40
0
 40
0
 40
0
 40
1
 40
1
 40
1
 40
1
 10
256.882925
 20
-106.084390
 30
0.0
 10
256.882925
 20
-107.575556
 30
0.0
 10
258.091754
 20
-108.784385
 30
0.0
 10
259.582920
 20
-108.784385
 30
0.0
  0
SPLINE
  5
11e
100
AcDbEntity
  8
0
 62
7
100
AcDbSpline
 70
8
 71
3
 72
8
 73
4
 74
0
 40
0
 40
0
 40
0
 40
0
 40
1
 40
1
 40
1
 40
1
 10
259.582920
 20
-108.784385
 30
0.0
 10
261.074086
 20
-108.784385
 30
0.0
 10
262.282915
 20
-107.575556
 30
0.0
 10
262.282915
 20
-106.084390
 30
0.0
  0
SPLINE
  5
11f
100
AcDbEntity
  8
0
 62
7
100
AcDbSpline
 70
8
 71
3
 72
8
 73
4
 74
0
 40
0
 40
0
 40
0
 40
0
 40
1
 40
1
 40
1
 40
1
 10
262.282915
 20
-106.084390
 30
0.0
 10
262.282915
 20
-105.368307
 30
0.0
 10
261.998452
 20
-104.681553
 30
0.0
 10
261.492104
 20
-104.175206
 30
0.0
  0
SPLINE
  5
120
100
AcDbEntity
  8
0
 62
7
100
AcDbSpline
 70
8
 71
3
 72
8
 73
4
 74
0
 40
0
 40
0
 40
0
 40
0
 40
1
 40
1
 40
1
 40
1
 10
261.492104
 20
-104.175206
 30
0.0
 10
260.985757
 20
-103.668859
 30
0.0
 10
260.299003
 20
-103.384396
 30
0.0
 10
259.582920
 20
-103.384396
 30
0.0
  0
LWPOLYLINE
  5
121
100
AcDbEntity
  8
0
 62
7
100
AcDbPolyline
 90
2
 70
0
 10
254.817880
 20
-25.120112
 30
0.0
 10
254.817880
 20
-82.270112
 30
0.0
  0
LWPOLYLINE
  5
122
100
AcDbEntity
  8
0
 62
7
100
AcDbPolyline
 90
1
 70
1
 10
259.582920
 20
-103.384396
 30
0.0
  0
LWPOLYLINE
  5
123
100
AcDbEntity
  8
0
 62
7
100
AcDbPolyline
 90
2
 70
0
 10
250.055380
 20
-82.270112
 30
0.0
 10
254.817880
 20
-82.270112
 30
0.0
  0
SPLINE
  5
124
100
AcDbEntity
  8
0
 62
7
100
AcDbSpline
 70
8
 71
3
 72
8
 73
4
 74
0
 40
0
 40
0
 40
0
 40
0
 40
1
 40
1
 40
1
 40
1
 10
222.672910
 20
-2.094426
 30
0.0
 10
222.268448
 20
-2.094426
 30
0.0
 10
221.903811
 20
-2.338068
 30
0.0
 10
221.749030
 20
-2.711742
 30
0.0
  0
SPLINE
  5
125
100
AcDbEntity
  8
0
 62
7
100
AcDbSpline
 70
8
 71
3
 72
8
 73
4
 74
0
 40
0
 40
0
 40
0
 40
0
 40
1
 40
1
 40
1
 40
1
 10
221.749030
 20
-2.711742
 30
0.0
 10
221.594249
 20
-3.085417
 30
0.0
 10
221.679805
 20
-3.515535
 30
0.0
 10
221.965803
 20
-3.801533
 30
0.0
  0
SPLINE
  5
126
100
AcDbEntity
  8
0
 62
7
100
AcDbSpline
 70
8
 71
3
 72
8
 73
4
 74
0
 40
0
 40
0
 40
0
 40
0
 40
1
 40
1
 40
1
 40
1
 10
221.965803
 20
-3.801533
 30
0.0
 10
222.251801
 20
-4.087531
 30
0.0
 10
222.681919
 20
-4.173087
 30
0.0
 10
223.055594
 20
-4.018306
 30
0.0
  0
SPLINE
  5
127
100
AcDbEntity
  8
0
 62
7
100
AcDbSpline
 70
8
 71
3
 72
8
 73
4
 74
0
 40
0
 40
0
 40
0
 40
0
 40
1
 40
1
 40
1
 40
1
 10
223.055594
 20
-4.018306
 30
0.0
 10
223.429268
 20
-3.863525
 30
0.0
 10
223.672911
 20
-3.498889
 30
0.0
 10
223.672911
 20
-3.094426
 30
0.0
  0
SPLINE
  5
128
100
AcDbEntity
  8
0
 62
7
100
AcDbSpline
 70
8
 71
3
 72
8
 73
4
 74
0
 40
0
 40
0
 40
0
 40
0
 40
1
 40
1
 40
1
 40
1
 10
223.672911
 20
-3.094426
 30
0.0
 10
223.672911
 20
-2.829209
 30
0.0
 10
223.567554
 20
-2.574855
 30
0.0
 10
223.380017
 20
-2.387319
 30
0.0
  0
SPLINE
  5
129
100
AcDbEntity
  8
0
 62
7
100
AcDbSpline
 70
8
 71
3
 72
8
 73
4
 74
0
 40
0
 40
0
 40
0
 40
0
 40
1
 40
1
 40
1
 40
1
 10
223.380017
 20
-2.387319
 30
0.0
 10
223.192481
 20
-2.199782
 30
0.0
 10
222.938127
 20
-2.094426
 30
0.0
 10
222.672910
 20
-2.094426
 30
0.0
  0
LWPOLYLINE
  5
12a
100
AcDbEntity
  8
0
 62
7
100
AcDbPolyline
 90
2
 70
0
 10
41.696640
 20
-25.120112
 30
0.0
 10
41.696640
 20
-12.023872
 30
0.0
  0
SPLINE
  5
12b
100
AcDbEntity
  8
0
 62
7
100
AcDbSpline
 70
8
 71
3
 72
8
 73
4
 74
0
 40
0
 40
0
 40
0
 40
0
 40
1
 40
1
 40
1
 40
1
 10
42.887646
 20
-2.094426
 30
0.0
 10
42.483184
 20
-2.094426
 30
0.0
 10
42.118547
 20
-2.338068
 30
0.0
 10
41.963766
 20
-2.711742
 30
0.0
  0
SPLINE
  5
12c
100
AcDbEntity
  8
0
 62
7
100
AcDbSpline
 70
8
 71
3
 72
8
 73
4
 74
0
 40
0
 40
0
 40
0
 40
0
 40
1
 40
1
 40
1
 40
1
 10
41.963766
 20
-2.711742
 30
0.0
 10
41.808985
 20
-3.085417
 30
0.0
 10
41.894541
 20
-3.515535
 30
0.0
 10
42.180539
 20
-3.801533
 30
0.0
  0
SPLINE
  5
12d
100
AcDbEntity
  8
0
 62
7
100
AcDbSpline
 70
8
 71
3
 72
8
 73
4
 74
0
 40
0
 40
0
 40
0
 40
0
 40
1
 40
1
 40
1
 40
1
 10
42.180539
 20
-3.801533
 30
0.0
 10
42.466537
 20
-4.087531
 30
0.0
 10
42.896655
 20
-4.173087
 30
0.0
 10
43.270330
 20
-4.018306
 30
0.0
  0
SPLINE
  5
12e
100
AcDbEntity
  8
0
 62
7
100
AcDbSpline
 70
8
 71
3
 72
8
 73
4
 74
0
 40
0
 40
0
 40
0
 40
0
 40
1
 40
1
 40
1
 40
1
 10
43.270330
 20
-4.018306
 30
0.0
 10
43.644004
 20
-3.863525
 30
0.0
 10
43.887647
 20
-3.498889
 30
0.0
 10
43.887647
 20
-3.094426
 30
0.0
  0
SPLINE
  5
12f
100
AcDbEntity
  8
0
 62
7
100
AcDbSpline
 70
8
 71
3
 72
8
 73
4
 74
0
 40
0
 40
0
 40
0
 40
0
 40
1
 40
1
 40
1
 40
1
 10
43.887647
 20
-3.094426
 30
0.0
 10
43.887647
 20
-2.829209
 30
0.0
 10
43.782290
 20
-2.574855
 30
0.0
 10
43.594753
 20
-2.387319
 30
0.0
  0
SPLINE
  5
130
100
AcDbEntity
  8
0
 62
7
100
AcDbSpline
 70
8
 71
3
 72
8
 73
4
 74
0
 40
0
 40
0
 40
0
 40
0
 40
1
 40
1
 40
1
 40
1
 10
43.594753
 20
-2.387319
 30
0.0
 10
43.407217
 20
-2.199782
 30
0.0
 10
43.152863
 20
-2.094426
 30
0.0
 10
42.887646
 20
-2.094426
 30
0.0
  0
LWPOLYLINE
  5
131
100
AcDbEntity
  8
0
 62
7
100
AcDbPolyline
 90
1
 70
1
 10
222.672910
 20
-2.094426
 30
0.0
  0
SPLINE
  5
132
100
AcDbEntity
  8
0
 62
7
100
AcDbSpline
 70
8
 71
3
 72
8
 73
4
 74
0
 40
0
 40
0
 40
0
 40
0
 40
1
 40
1
 40
1
 40
1
 10
222.672910
 20
-108.060508
 30
0.0
 10
222.268448
 20
-108.060508
 30
0.0
 10
221.903811
 20
-108.304150
 30
0.0
 10
221.749030
 20
-108.677825
 30
0.0
  0
SPLINE
  5
133
100
AcDbEntity
  8
0
 62
7
100
AcDbSpline
 70
8
 71
3
 72
8
 73
4
 74
0
 40
0
 40
0
 40
0
 40
0
 40
1
 40
1
 40
1
 40
1
 10
221.749030
 20
-108.677825
 30
0.0
 10
221.594249
 20
-109.051499
 30
0.0
 10
221.679805
 20
-109.481617
 30
0.0
 10
221.965803
 20
-109.767615
 30
0.0
  0
SPLINE
  5
134
100
AcDbEntity
  8
0
 62
7
100
AcDbSpline
 70
8
 71
3
 72
8
 73
4
 74
0
 40
0
 40
0
 40
0
 40
0
 40
1
 40
1
 40
1
 40
1
 10
221.965803
 20
-109.767615
 30
0.0
 10
222.251801
 20
-110.053614
 30
0.0
 10
222.681919
 20
-110.139169
 30
0.0
 10
223.055594
 20
-109.984388
 30
0.0
  0
SPLINE
  5
135
100
AcDbEntity
  8
0
 62
7
100
AcDbSpline
 70
8
 71
3
 72
8
 73
4
 74
0
 40
0
 40
0
 40
0
 40
0
 40
1
 40
1
 40
1
 40
1
 10
223.055594
 20
-109.984388
 30
0.0
 10
223.429268
 20
-109.829607
 30
0.0
 10
223.672911
 20
-109.464971
 30
0.0
 10
223.672911
 20
-109.060508
 30
0.0
  0
SPLINE
  5
136
100
AcDbEntity
  8
0
 62
7
100
AcDbSpline
 70
8
 71
3
 72
8
 73
4
 74
0
 40
0
 40
0
 40
0
 40
0
 40
1
 40
1
 40
1
 40
1
 10
223.672911
 20
-109.060508
 30
0.0
 10
223.672911
 20
-108.795292
 30
0.0
 10
223.567554
 20
-108.540938
 30
0.0
 10
223.380017
 20
-108.353401
 30
0.0
  0
SPLINE
  5
137
100
AcDbEntity
  8
0
 62
7
100
AcDbSpline
 70
8
 71
3
 72
8
 73
4
 74
0
 40
0
 40
0
 40
0
 40
0
 40
1
 40
1
 40
1
 40
1
 10
223.380017
 20
-108.353401
 30
0.0
 10
223.192481
 20
-108.165865
 30
0.0
 10
222.938127
 20
-108.060508
 30
0.0
 10
222.672910
 20
-108.060508
 30
0.0
  0
LWPOLYLINE
  5
138
100
AcDbEntity
  8
0
 62
7
100
AcDbPolyline
 90
1
 70
1
 10
42.887646
 20
-2.094426
 30
0.0
  0
LWPOLYLINE
  5
139
100
AcDbEntity
  8
0
 62
7
100
AcDbPolyline
 90
1
 70
1
 10
222.672910
 20
-108.060508
 30
0.0
  0
LWPOLYLINE
  5
13a
100
AcDbEntity
  8
0
 62
7
100
AcDbPolyline
 90
2
 70
0
 10
0.025400
 20
-110.845112
 30
0.0
 10
0.022860
 20
-1.307612
 30
0.0
  0
LWPOLYLINE
  5
13b
100
AcDbEntity
  8
0
 62
7
100
AcDbPolyline
 90
2
 70
0
 10
254.817880
 20
-25.120112
 30
0.0
 10
224.457260
 20
-25.120112
 30
0.0
  0
LWPOLYLINE
  5
13c
100
AcDbEntity
  8
0
 62
7
100
AcDbPolyline
 90
2
 70
0
 10
2.405380
 20
-113.227632
 30
0.0
 10
264.342880
 20
-113.227632
 30
0.0
  0
SPLINE
  5
13d
100
AcDbEntity
  8
0
 62
7
100
AcDbSpline
 70
8
 71
3
 72
8
 73
4
 74
0
 40
0
 40
0
 40
0
 40
0
 40
1
 40
1
 40
1
 40
1
 10
133.375654
 20
-2.094426
 30
0.0
 10
132.971192
 20
-2.094426
 30
0.0
 10
132.606555
 20
-2.338068
 30
0.0
 10
132.451774
 20
-2.711742
 30
0.0
  0
SPLINE
  5
13e
100
AcDbEntity
  8
0
 62
7
100
AcDbSpline
 70
8
 71
3
 72
8
 73
4
 74
0
 40
0
 40
0
 40
0
 40
0
 40
1
 40
1
 40
1
 40
1
 10
132.451774
 20
-2.711742
 30
0.0
 10
132.296993
 20
-3.085417
 30
0.0
 10
132.382549
 20
-3.515535
 30
0.0
 10
132.668547
 20
-3.801533
 30
0.0
  0
SPLINE
  5
13f
100
AcDbEntity
  8
0
 62
7
100
AcDbSpline
 70
8
 71
3
 72
8
 73
4
 74
0
 40
0
 40
0
 40
0
 40
0
 40
1
 40
1
 40
1
 40
1
 10
132.668547
 20
-3.801533
 30
0.0
 10
132.954545
 20
-4.087531
 30
0.0
 10
133.384663
 20
-4.173087
 30
0.0
 10
133.758338
 20
-4.018306
 30
0.0
  0
SPLINE
  5
140
100
AcDbEntity
  8
0
 62
7
100
AcDbSpline
 70
8
 71
3
 72
8
 73
4
 74
0
 40
0
 40
0
 40
0
 40
0
 40
1
 40
1
 40
1
 40
1
 10
133.758338
 20
-4.018306
 30
0.0
 10
134.132012
 20
-3.863525
 30
0.0
 10
134.375655
 20
-3.498889
 30
0.0
 10
134.375655
 20
-3.094426
 30
0.0
  0
SPLINE
  5
141
100
AcDbEntity
  8
0
 62
7
100
AcDbSpline
 70
8
 71
3
 72
8
 73
4
 74
0
 40
0
 40
0
 40
0
 40
0
 40
1
 40
1
 40
1
 40
1
 10
134.375655
 20
-3.094426
 30
0.0
 10
134.375655
 20
-2.829209
 30
0.0
 10
134.270298
 20
-2.574855
 30
0.0
 10
134.082761
 20
-2.387319
 30
0.0
  0
SPLINE
  5
142
100
AcDbEntity
  8
0
 62
7
100
AcDbSpline
 70
8
 71
3
 72
8
 73
4
 74
0
 40
0
 40
0
 40
0
 40
0
 40
1
 40
1
 40
1
 40
1
 10
134.082761
 20
-2.387319
 30
0.0
 10
133.895225
 20
-2.199782
 30
0.0
 10
133.640871
 20
-2.094426
 30
0.0
 10
133.375654
 20
-2.094426
 30
0.0
  0
LWPOLYLINE
  5
143
100
AcDbEntity
  8
0
 62
7
100
AcDbPolyline
 90
2
 70
0
 10
223.266000
 20
-10.832612
 30
0.0
 10
42.885360
 20
-10.832612
 30
0.0
  0
SPLINE
  5
144
100
AcDbEntity
  8
0
 62
7
100
AcDbSpline
 70
8
 71
3
 72
8
 73
4
 74
0
 40
0
 40
0
 40
0
 40
0
 40
1
 40
1
 40
1
 40
1
 10
133.375654
 20
-108.060508
 30
0.0
 10
132.971192
 20
-108.060508
 30
0.0
 10
132.606555
 20
-108.304150
 30
0.0
 10
132.451774
 20
-108.677825
 30
0.0
  0
SPLINE
  5
145
100
AcDbEntity
  8
0
 62
7
100
AcDbSpline
 70
8
 71
3
 72
8
 73
4
 74
0
 40
0
 40
0
 40
0
 40
0
 40
1
 40
1
 40
1
 40
1
 10
132.451774
 20
-108.677825
 30
0.0
 10
132.296993
 20
-109.051499
 30
0.0
 10
132.382549
 20
-109.481617
 30
0.0
 10
132.668547
 20
-109.767615
 30
0.0
  0
SPLINE
  5
146
100
AcDbEntity
  8
0
 62
7
100
AcDbSpline
 70
8
 71
3
 72
8
 73
4
 74
0
 40
0
 40
0
 40
0
 40
0
 40
1
 40
1
 40
1
 40
1
 10
132.668547
 20
-109.767615
 30
0.0
 10
132.954545
 20
-110.053614
 30
0.0
 10
133.384663
 20
-110.139169
 30
0.0
 10
133.758338
 20
-109.984388
 30
0.0
  0
SPLINE
  5
147
100
AcDbEntity
  8
0
 62
7
100
AcDbSpline
 70
8
 71
3
 72
8
 73
4
 74
0
 40
0
 40
0
 40
0
 40
0
 40
1
 40
1
 40
1
 40
1
 10
133.758338
 20
-109.984388
 30
0.0
 10
134.132012
 20
-109.829607
 30
0.0
 10
134.375655
 20
-109.464971
 30
0.0
 10
134.375655
 20
-109.060508
 30
0.0
  0
SPLINE
  5
148
100
AcDbEntity
  8
0
 62
7
100
AcDbSpline
 70
8
 71
3
 72
8
 73
4
 74
0
 40
0
 40
0
 40
0
 40
0
 40
1
 40
1
 40
1
 40
1
 10
134.375655
 20
-109.060508
 30
0.0
 10
134.375655
 20
-108.795292
 30
0.0
 10
134.270298
 20
-108.540938
 30
0.0
 10
134.082761
 20
-108.353401
 30
0.0
  0
SPLINE
  5
149
100
AcDbEntity
  8
0
 62
7
100
AcDbSpline
 70
8
 71
3
 72
8
 73
4
 74
0
 40
0
 40
0
 40
0
 40
0
 40
1
 40
1
 40
1
 40
1
 10
134.082761
 20
-108.353401
 30
0.0
 10
133.895225
 20
-108.165865
 30
0.0
 10
133.640871
 20
-108.060508
 30
0.0
 10
133.375654
 20
-108.060508
 30
0.0
  0
LWPOLYLINE
  5
14a
100
AcDbEntity
  8
0
 62
7
100
AcDbPolyline
 90
1
 70
1
 10
133.375654
 20
-2.094426
 30
0.0
  0
LWPOLYLINE
  5
14b
100
AcDbEntity
  8
0
 62
7
100
AcDbPolyline
 90
1
 70
1
 10
133.375654
 20
-108.060508
 30
0.0
  0
LWPOLYLINE
  5
14c
100
AcDbEntity
  8
0
 62
7
100
AcDbPolyline
 90
2
 70
0
 10
266.725400
 20
-110.845112
 30
0.0
 10
266.725400
 20
-1.307612
 30
0.0
  0
LWPOLYLINE
  5
14d
100
AcDbEntity
  8
0
 62
7
100
AcDbPolyline
 90
2
 70
0
 10
11.930380
 20
-25.120112
 30
0.0
 10
41.696640
 20
-25.120112
 30
0.0
  0
SPLINE
  5
14e
100
AcDbEntity
  8
0
 62
7
100
AcDbSpline
 70
8
 71
3
 72
8
 73
4
 74
0
 40
0
 40
0
 40
0
 40
0
 40
1
 40
1
 40
1
 40
1
 10
224.458022
 20
-12.024152
 30
0.0
 10
224.458022
 20
-11.708356
 30
0.0
 10
224.332564
 20
-11.405497
 30
0.0
 10
224.109251
 20
-11.182208
 30
0.0
  0
SPLINE
  5
14f
100
AcDbEntity
  8
0
 62
7
100
AcDbSpline
 70
8
 71
3
 72
8
 73
4
 74
0
 40
0
 40
0
 40
0
 40
0
 40
1
 40
1
 40
1
 40
1
 10
224.109251
 20
-11.182208
 30
0.0
 10
223.885938
 20
-10.958919
 30
0.0
 10
223.583065
 20
-10.833493
 30
0.0
 10
223.267270
 20
-10.833527
 30
0.0
  0
LWPOLYLINE
  5
150
100
AcDbEntity
  8
0
 62
7
100
AcDbPolyline
 90
2
 70
0
 10
11.930380
 20
-25.120112
 30
0.0
 10
11.930380
 20
-82.270112
 30
0.0
  0
LWPOLYLINE
  5
151
100
AcDbEntity
  8
0
 62
7
100
AcDbPolyline
 90
2
 70
0
 10
16.692880
 20
-101.320112
 30
0.0
 10
250.055380
 20
-101.320112
 30
0.0
  0
LWPOLYLINE
  5
152
100
AcDbEntity
  8
0
 62
7
100
AcDbPolyline
 90
2
 70
0
 10
11.930380
 20
-82.270112
 30
0.0
 10
16.692880
 20
-82.270112
 30
0.0
  0
SPLINE
  5
153
100
AcDbEntity
  8
0
 62
7
100
AcDbSpline
 70
8
 71
3
 72
8
 73
4
 74
0
 40
0
 40
0
 40
0
 40
0
 40
1
 40
1
 40
1
 40
1
 10
42.887392
 20
-10.833527
 30
0.0
 10
42.229878
 20
-10.833597
 30
0.0
 10
41.696894
 20
-11.366637
 30
0.0
 10
41.696894
 20
-12.024152
 30
0.0
  0
LWPOLYLINE
  5
154
100
AcDbEntity
  8
0
 62
7
100
AcDbPolyline
 90
2
 70
0
 10
2.405380
 20
1.074908
 30
0.0
 10
264.342880
 20
1.074908
 30
0.0
  0
SPLINE
  5
155
100
AcDbEntity
  8
0
 62
7
100
AcDbSpline
 70
8
 71
3
 72
8
 73
4
 74
0
 40
0
 40
0
 40
0
 40
0
 40
1
 40
1
 40
1
 40
1
 10
7.168769
 20
-3.371007
 30
0.0
 10
6.076723
 20
-3.371007
 30
0.0
 10
5.092207
 20
-4.028839
 30
0.0
 10
4.674299
 20
-5.037758
 30
0.0
  0
SPLINE
  5
156
100
AcDbEntity
  8
0
 62
7
100
AcDbSpline
 70
8
 71
3
 72
8
 73
4
 74
0
 40
0
 40
0
 40
0
 40
0
 40
1
 40
1
 40
1
 40
1
 10
4.674299
 20
-5.037758
 30
0.0
 10
4.256391
 20
-6.046677
 30
0.0
 10
4.487391
 20
-7.207993
 30
0.0
 10
5.259585
 20
-7.980186
 30
0.0
  0
SPLINE
  5
157
100
AcDbEntity
  8
0
 62
7
100
AcDbSpline
 70
8
 71
3
 72
8
 73
4
 74
0
 40
0
 40
0
 40
0
 40
0
 40
1
 40
1
 40
1
 40
1
 10
5.259585
 20
-7.980186
 30
0.0
 10
6.031778
 20
-8.752379
 30
0.0
 10
7.193093
 20
-8.983379
 30
0.0
 10
8.202012
 20
-8.565471
 30
0.0
  0
SPLINE
  5
158
100
AcDbEntity
  8
0
 62
7
100
AcDbSpline
 70
8
 71
3
 72
8
 73
4
 74
0
 40
0
 40
0
 40
0
 40
0
 40
1
 40
1
 40
1
 40
1
 10
8.202012
 20
-8.565471
 30
0.0
 10
9.210931
 20
-8.147563
 30
0.0
 10
9.868764
 20
-7.163047
 30
0.0
 10
9.868764
 20
-6.071001
 30
0.0
  0
SPLINE
  5
159
100
AcDbEntity
  8
0
 62
7
100
AcDbSpline
 70
8
 71
3
 72
8
 73
4
 74
0
 40
0
 40
0
 40
0
 40
0
 40
1
 40
1
 40
1
 40
1
 10
9.868764
 20
-6.071001
 30
0.0
 10
9.868764
 20
-5.354918
 30
0.0
 10
9.584301
 20
-4.668164
 30
0.0
 10
9.077953
 20
-4.161817
 30
0.0
  0
SPLINE
  5
15a
100
AcDbEntity
  8
0
 62
7
100
AcDbSpline
 70
8
 71
3
 72
8
 73
4
 74
0
 40
0
 40
0
 40
0
 40
0
 40
1
 40
1
 40
1
 40
1
 10
9.077953
 20
-4.161817
 30
0.0
 10
8.571606
 20
-3.655470
 30
0.0
 10
7.884852
 20
-3.371007
 30
0.0
 10
7.168769
 20
-3.371007
 30
0.0
  0
LWPOLYLINE
  5
15b
100
AcDbEntity
  8
0
 62
7
100
AcDbPolyline
 90
2
 70
0
 10
16.692880
 20
-82.270112
 30
0.0
 10
16.692880
 20
-101.320112
 30
0.0
  0
LWPOLYLINE
  5
15c
100
AcDbEntity
  8
0
 62
7
100
AcDbPolyline
 90
1
 70
1
 10
7.168769
 20
-3.371007
 30
0.0
  0
ENDSEC
  0
SECTION
  2
OBJECTS
  0
DICTIONARY
  5
C
330
0
100
AcDbDictionary
  3
ACAD_GROUP
350
D
  3
ACAD_MLINESTYLE
350
17
  0
DICTIONARY
  5
D
330
C
100
AcDbDictionary
  0
DICTIONARY
  5
1A
330
C
100
AcDbDictionary
  0
DICTIONARY
  5
17
330
C
100
AcDbDictionary
  3
STANDARD
350
18
  0
DICTIONARY
  5
19
330
C
100
AcDbDictionary
  0
ENDSEC
  0
EOF
