  0
SECTION
  2
HEADER
  9
$ACADVER
  1
AC1014
  9
$HANDSEED
  5
FFFF
  9
$MEASUREMENT
 70
     1
  0
ENDSEC
  0
SECTION
  2
TABLES
  0
TABLE
  2
VPORT
  5
8
330
0
100
AcDbSymbolTable
 70
     4
  0
VPORT
  5
2E
330
8
100
AcDbSymbolTableRecord
100
AcDbViewportTableRecord
  2
*ACTIVE
 70
     0
 10
0.0
 20
0.0
 11
1.0
 21
1.0
 12
210.0
 22
148.5
 13
0.0
 23
0.0
 14
10.0
 24
10.0
 15
10.0
 25
10.0
 16
0.0
 26
0.0
 36
1.0
 17
0.0
 27
0.0
 37
0.0
 40
341.0
 41
1.24
 42
50.0
 43
0.0
 44
0.0
 50
0.0
 51
0.0
 71
     0
 72
   100
 73
     1
 74
     3
 75
     0
 76
     0
 77
     0
 78
     0
  0
ENDTAB
  0
TABLE
  2
LTYPE
  5
5
330
0
100
AcDbSymbolTable
 70
     1
  0
LTYPE
  5
14
330
5
100
AcDbSymbolTableRecord
100
AcDbLinetypeTableRecord
  2
BYBLOCK
 70
     0
  3

 72
    65
 73
     0
 40
0.0
  0
LTYPE
  5
15
330
5
100
AcDbSymbolTableRecord
100
AcDbLinetypeTableRecord
  2
BYLAYER
 70
     0
  3

 72
    65
 73
     0
 40
0.0
  0
LTYPE
  5
16
330
5
100
AcDbSymbolTableRecord
100
AcDbLinetypeTableRecord
  2
CONTINUOUS
 70
     0
  3
Solid line
 72
    65
 73
     0
 40
0.0
  0
ENDTAB
  0
TABLE
  2
LAYER
  5
2
100
AcDbSymbolTable
 70
1
  0
LAYER
  5
50
100
AcDbSymbolTableRecord
100
AcDbLayerTableRecord
  2
0
 70
0
  6
CONTINUOUS
  0
ENDTAB
  0
TABLE
  2
STYLE
  5
3
330
0
100
AcDbSymbolTable
 70
     1
  0
STYLE
  5
11
330
3
100
AcDbSymbolTableRecord
100
AcDbTextStyleTableRecord
  2
STANDARD
 70
     0
 40
0.0
 41
1.0
 50
0.0
 71
     0
 42
2.5
  3
txt
  4

  0
ENDTAB
  0
TABLE
  2
VIEW
  5
6
330
0
100
AcDbSymbolTable
 70
     0
  0
ENDTAB
  0
TABLE
  2
UCS
  5
7
330
0
100
AcDbSymbolTable
 70
     0
  0
ENDTAB
  0
TABLE
  2
APPID
  5
9
330
0
100
AcDbSymbolTable
 70
     2
  0
APPID
  5
12
330
9
100
AcDbSymbolTableRecord
100
AcDbRegAppTableRecord
  2
ACAD
 70
     0
  0
ENDTAB
  0
TABLE
  2
DIMSTYLE
  5
A
330
0
100
AcDbSymbolTable
 70
     1
  0
DIMSTYLE
105
27
330
A
100
AcDbSymbolTableRecord
100
AcDbDimStyleTableRecord
  2
ISO-25
 70
     0
  3

  4

  5

  6

  7

 40
1.0
 41
2.5
 42
0.625
 43
3.75
 44
1.25
 45
0.0
 46
0.0
 47
0.0
 48
0.0
140
2.5
141
2.5
142
0.0
143
0.03937007874016
144
1.0
145
0.0
146
1.0
147
0.625
 71
     0
 72
     0
 73
     0
 74
     0
 75
     0
 76
     0
 77
     1
 78
     8
170
     0
171
     3
172
     1
173
     0
174
     0
175
     0
176
     0
177
     0
178
     0
270
     2
271
     2
272
     2
273
     2
274
     3
340
11
275
     0
280
     0
281
     0
282
     0
283
     0
284
     8
285
     0
286
     0
287
     3
288
     0
  0
ENDTAB
  0
TABLE
  2
BLOCK_RECORD
  5
1
330
0
100
AcDbSymbolTable
 70
     1
  0
BLOCK_RECORD
  5
1F
330
1
100
AcDbSymbolTableRecord
100
AcDbBlockTableRecord
  2
*MODEL_SPACE
  0
BLOCK_RECORD
  5
1B
330
1
100
AcDbSymbolTableRecord
100
AcDbBlockTableRecord
  2
*PAPER_SPACE
  0
ENDTAB
  0
ENDSEC
  0
SECTION
  2
BLOCKS
  0
BLOCK
  5
20
330
1F
100
AcDbEntity
  8
0
100
AcDbBlockBegin
  2
*MODEL_SPACE
 70
     0
 10
0.0
 20
0.0
 30
0.0
  3
*MODEL_SPACE
  1

  0
ENDBLK
  5
21
330
1F
100
AcDbEntity
  8
0
100
AcDbBlockEnd
  0
BLOCK
  5
1C
330
1B
100
AcDbEntity
 67
     1
  8
0
100
AcDbBlockBegin
  2
*PAPER_SPACE
  1

  0
ENDBLK
  5
1D
330
1B
100
AcDbEntity
 67
     1
  8
0
100
AcDbBlockEnd
  0
ENDSEC
  0
SECTION
  2
ENTITIES
  0
SPLINE
  5
100
100
AcDbEntity
  8
0
 62
7
100
AcDbSpline
 70
8
 71
3
 72
8
 73
4
 74
0
 40
0
 40
0
 40
0
 40
0
 40
1
 40
1
 40
1
 40
1
 10
48.840644
 20
-36.242620
 30
0.0
 10
50.967491
 20
-36.242620
 30
0.0
 10
52.932778
 20
-35.107961
 30
0.0
 10
53.996201
 20
-33.266057
 30
0.0
  0
SPLINE
  5
101
100
AcDbEntity
  8
0
 62
7
100
AcDbSpline
 70
8
 71
3
 72
8
 73
4
 74
0
 40
0
 40
0
 40
0
 40
0
 40
1
 40
1
 40
1
 40
1
 10
53.996201
 20
-33.266057
 30
0.0
 10
55.059625
 20
-31.424154
 30
0.0
 10
55.059625
 20
-29.154836
 30
0.0
 10
53.996201
 20
-27.312932
 30
0.0
  0
SPLINE
  5
102
100
AcDbEntity
  8
0
 62
7
100
AcDbSpline
 70
8
 71
3
 72
8
 73
4
 74
0
 40
0
 40
0
 40
0
 40
0
 40
1
 40
1
 40
1
 40
1
 10
53.996201
 20
-27.312932
 30
0.0
 10
52.932778
 20
-25.471029
 30
0.0
 10
50.967491
 20
-24.336370
 30
0.0
 10
48.840644
 20
-24.336370
 30
0.0
  0
SPLINE
  5
103
100
AcDbEntity
  8
0
 62
7
100
AcDbSpline
 70
8
 71
3
 72
8
 73
4
 74
0
 40
0
 40
0
 40
0
 40
0
 40
1
 40
1
 40
1
 40
1
 10
5.382819
 20
-10.644170
 30
0.0
 10
3.681341
 20
-10.644170
 30
0.0
 10
2.109112
 20
-11.551897
 30
0.0
 10
1.258373
 20
-13.025420
 30
0.0
  0
SPLINE
  5
104
100
AcDbEntity
  8
0
 62
7
100
AcDbSpline
 70
8
 71
3
 72
8
 73
4
 74
0
 40
0
 40
0
 40
0
 40
0
 40
1
 40
1
 40
1
 40
1
 10
1.258373
 20
-13.025420
 30
0.0
 10
0.407634
 20
-14.498942
 30
0.0
 10
0.407634
 20
-16.314397
 30
0.0
 10
1.258373
 20
-17.787920
 30
0.0
  0
SPLINE
  5
105
100
AcDbEntity
  8
0
 62
7
100
AcDbSpline
 70
8
 71
3
 72
8
 73
4
 74
0
 40
0
 40
0
 40
0
 40
0
 40
1
 40
1
 40
1
 40
1
 10
1.258373
 20
-17.787920
 30
0.0
 10
2.109112
 20
-19.261442
 30
0.0
 10
3.681341
 20
-20.169170
 30
0.0
 10
5.382819
 20
-20.169170
 30
0.0
  0
SPLINE
  5
106
100
AcDbEntity
  8
0
 62
7
100
AcDbSpline
 70
8
 71
3
 72
8
 73
4
 74
0
 40
0
 40
0
 40
0
 40
0
 40
1
 40
1
 40
1
 40
1
 10
5.382285
 20
-13.807077
 30
0.0
 10
4.735146
 20
-13.807077
 30
0.0
 10
4.151728
 20
-14.196904
 30
0.0
 10
3.904079
 20
-14.794783
 30
0.0
  0
SPLINE
  5
107
100
AcDbEntity
  8
0
 62
7
100
AcDbSpline
 70
8
 71
3
 72
8
 73
4
 74
0
 40
0
 40
0
 40
0
 40
0
 40
1
 40
1
 40
1
 40
1
 10
3.904079
 20
-14.794783
 30
0.0
 10
3.656429
 20
-15.392662
 30
0.0
 10
3.793318
 20
-16.080850
 30
0.0
 10
4.250915
 20
-16.538447
 30
0.0
  0
SPLINE
  5
108
100
AcDbEntity
  8
0
 62
7
100
AcDbSpline
 70
8
 71
3
 72
8
 73
4
 74
0
 40
0
 40
0
 40
0
 40
0
 40
1
 40
1
 40
1
 40
1
 10
4.250915
 20
-16.538447
 30
0.0
 10
4.708512
 20
-16.996043
 30
0.0
 10
5.396700
 20
-17.132932
 30
0.0
 10
5.994579
 20
-16.885283
 30
0.0
  0
SPLINE
  5
109
100
AcDbEntity
  8
0
 62
7
100
AcDbSpline
 70
8
 71
3
 72
8
 73
4
 74
0
 40
0
 40
0
 40
0
 40
0
 40
1
 40
1
 40
1
 40
1
 10
5.994579
 20
-16.885283
 30
0.0
 10
6.592457
 20
-16.637633
 30
0.0
 10
6.982285
 20
-16.054215
 30
0.0
 10
6.982285
 20
-15.407076
 30
0.0
  0
SPLINE
  5
10a
100
AcDbEntity
  8
0
 62
7
100
AcDbSpline
 70
8
 71
3
 72
8
 73
4
 74
0
 40
0
 40
0
 40
0
 40
0
 40
1
 40
1
 40
1
 40
1
 10
6.982285
 20
-15.407076
 30
0.0
 10
6.982285
 20
-14.982730
 30
0.0
 10
6.813714
 20
-14.575764
 30
0.0
 10
6.513656
 20
-14.275706
 30
0.0
  0
SPLINE
  5
10b
100
AcDbEntity
  8
0
 62
7
100
AcDbSpline
 70
8
 71
3
 72
8
 73
4
 74
0
 40
0
 40
0
 40
0
 40
0
 40
1
 40
1
 40
1
 40
1
 10
6.513656
 20
-14.275706
 30
0.0
 10
6.213598
 20
-13.975648
 30
0.0
 10
5.806632
 20
-13.807077
 30
0.0
 10
5.382285
 20
-13.807077
 30
0.0
  0
LWPOLYLINE
  5
10c
100
AcDbEntity
  8
0
 62
7
100
AcDbPolyline
 90
2
 70
0
 10
38.122860
 20
-36.242366
 30
0.0
 10
48.839120
 20
-36.242366
 30
0.0
  0
LWPOLYLINE
  5
10d
100
AcDbEntity
  8
0
 62
7
100
AcDbPolyline
 90
1
 70
1
 10
5.382285
 20
-13.807077
 30
0.0
  0
SPLINE
  5
10e
100
AcDbEntity
  8
0
 62
7
100
AcDbSpline
 70
8
 71
3
 72
8
 73
4
 74
0
 40
0
 40
0
 40
0
 40
0
 40
1
 40
1
 40
1
 40
1
 10
5.382819
 20
0.666773
 30
0.0
 10
4.106711
 20
0.666764
 30
0.0
 10
2.927538
 20
-0.014031
 30
0.0
 10
2.289484
 20
-1.119173
 30
0.0
  0
SPLINE
  5
10f
100
AcDbEntity
  8
0
 62
7
100
AcDbSpline
 70
8
 71
3
 72
8
 73
4
 74
0
 40
0
 40
0
 40
0
 40
0
 40
1
 40
1
 40
1
 40
1
 10
2.289484
 20
-1.119173
 30
0.0
 10
1.651430
 20
-2.224315
 30
0.0
 10
1.651430
 20
-3.585906
 30
0.0
 10
2.289484
 20
-4.691048
 30
0.0
  0
SPLINE
  5
110
100
AcDbEntity
  8
0
 62
7
100
AcDbSpline
 70
8
 71
3
 72
8
 73
4
 74
0
 40
0
 40
0
 40
0
 40
0
 40
1
 40
1
 40
1
 40
1
 10
2.289484
 20
-4.691048
 30
0.0
 10
2.927538
 20
-5.796190
 30
0.0
 10
4.106711
 20
-6.476986
 30
0.0
 10
5.382819
 20
-6.476986
 30
0.0
  0
LWPOLYLINE
  5
111
100
AcDbEntity
  8
0
 62
7
100
AcDbPolyline
 90
2
 70
0
 10
48.244760
 20
-6.476106
 30
0.0
 10
5.382260
 20
-6.476106
 30
0.0
  0
SPLINE
  5
112
100
AcDbEntity
  8
0
 62
7
100
AcDbSpline
 70
8
 71
3
 72
8
 73
4
 74
0
 40
0
 40
0
 40
0
 40
0
 40
1
 40
1
 40
1
 40
1
 10
48.244760
 20
-13.807077
 30
0.0
 10
47.597621
 20
-13.807077
 30
0.0
 10
47.014203
 20
-14.196904
 30
0.0
 10
46.766553
 20
-14.794783
 30
0.0
  0
SPLINE
  5
113
100
AcDbEntity
  8
0
 62
7
100
AcDbSpline
 70
8
 71
3
 72
8
 73
4
 74
0
 40
0
 40
0
 40
0
 40
0
 40
1
 40
1
 40
1
 40
1
 10
46.766553
 20
-14.794783
 30
0.0
 10
46.518904
 20
-15.392662
 30
0.0
 10
46.655793
 20
-16.080850
 30
0.0
 10
47.113390
 20
-16.538447
 30
0.0
  0
SPLINE
  5
114
100
AcDbEntity
  8
0
 62
7
100
AcDbSpline
 70
8
 71
3
 72
8
 73
4
 74
0
 40
0
 40
0
 40
0
 40
0
 40
1
 40
1
 40
1
 40
1
 10
47.113390
 20
-16.538447
 30
0.0
 10
47.570986
 20
-16.996043
 30
0.0
 10
48.259174
 20
-17.132932
 30
0.0
 10
48.857053
 20
-16.885283
 30
0.0
  0
SPLINE
  5
115
100
AcDbEntity
  8
0
 62
7
100
AcDbSpline
 70
8
 71
3
 72
8
 73
4
 74
0
 40
0
 40
0
 40
0
 40
0
 40
1
 40
1
 40
1
 40
1
 10
48.857053
 20
-16.885283
 30
0.0
 10
49.454932
 20
-16.637633
 30
0.0
 10
49.844759
 20
-16.054215
 30
0.0
 10
49.844759
 20
-15.407076
 30
0.0
  0
SPLINE
  5
116
100
AcDbEntity
  8
0
 62
7
100
AcDbSpline
 70
8
 71
3
 72
8
 73
4
 74
0
 40
0
 40
0
 40
0
 40
0
 40
1
 40
1
 40
1
 40
1
 10
49.844759
 20
-15.407076
 30
0.0
 10
49.844759
 20
-14.982730
 30
0.0
 10
49.676188
 20
-14.575764
 30
0.0
 10
49.376130
 20
-14.275706
 30
0.0
  0
SPLINE
  5
117
100
AcDbEntity
  8
0
 62
7
100
AcDbSpline
 70
8
 71
3
 72
8
 73
4
 74
0
 40
0
 40
0
 40
0
 40
0
 40
1
 40
1
 40
1
 40
1
 10
49.376130
 20
-14.275706
 30
0.0
 10
49.076072
 20
-13.975648
 30
0.0
 10
48.669106
 20
-13.807077
 30
0.0
 10
48.244760
 20
-13.807077
 30
0.0
  0
LWPOLYLINE
  5
118
100
AcDbEntity
  8
0
 62
7
100
AcDbPolyline
 90
2
 70
0
 10
5.382260
 20
-20.166706
 30
0.0
 10
48.244760
 20
-20.166706
 30
0.0
  0
LWPOLYLINE
  5
119
100
AcDbEntity
  8
0
 62
7
100
AcDbPolyline
 90
1
 70
1
 10
48.244760
 20
-13.807077
 30
0.0
  0
LWPOLYLINE
  5
11a
100
AcDbEntity
  8
0
 62
7
100
AcDbPolyline
 90
2
 70
0
 10
5.382260
 20
0.668914
 30
0.0
 10
48.244760
 20
0.668914
 30
0.0
  0
SPLINE
  5
11b
100
AcDbEntity
  8
0
 62
7
100
AcDbSpline
 70
8
 71
3
 72
8
 73
4
 74
0
 40
0
 40
0
 40
0
 40
0
 40
1
 40
1
 40
1
 40
1
 10
48.245268
 20
-20.169170
 30
0.0
 10
49.946745
 20
-20.169170
 30
0.0
 10
51.518975
 20
-19.261442
 30
0.0
 10
52.369714
 20
-17.787920
 30
0.0
  0
SPLINE
  5
11c
100
AcDbEntity
  8
0
 62
7
100
AcDbSpline
 70
8
 71
3
 72
8
 73
4
 74
0
 40
0
 40
0
 40
0
 40
0
 40
1
 40
1
 40
1
 40
1
 10
52.369714
 20
-17.787920
 30
0.0
 10
53.220453
 20
-16.314397
 30
0.0
 10
53.220453
 20
-14.498942
 30
0.0
 10
52.369714
 20
-13.025420
 30
0.0
  0
SPLINE
  5
11d
100
AcDbEntity
  8
0
 62
7
100
AcDbSpline
 70
8
 71
3
 72
8
 73
4
 74
0
 40
0
 40
0
 40
0
 40
0
 40
1
 40
1
 40
1
 40
1
 10
52.369714
 20
-13.025420
 30
0.0
 10
51.518975
 20
-11.551897
 30
0.0
 10
49.946745
 20
-10.644170
 30
0.0
 10
48.245268
 20
-10.644170
 30
0.0
  0
SPLINE
  5
11e
100
AcDbEntity
  8
0
 62
7
100
AcDbSpline
 70
8
 71
3
 72
8
 73
4
 74
0
 40
0
 40
0
 40
0
 40
0
 40
1
 40
1
 40
1
 40
1
 10
48.245268
 20
-6.476995
 30
0.0
 10
49.521376
 20
-6.476986
 30
0.0
 10
50.700548
 20
-5.796190
 30
0.0
 10
51.338602
 20
-4.691048
 30
0.0
  0
SPLINE
  5
11f
100
AcDbEntity
  8
0
 62
7
100
AcDbSpline
 70
8
 71
3
 72
8
 73
4
 74
0
 40
0
 40
0
 40
0
 40
0
 40
1
 40
1
 40
1
 40
1
 10
51.338602
 20
-4.691048
 30
0.0
 10
51.976657
 20
-3.585906
 30
0.0
 10
51.976657
 20
-2.224315
 30
0.0
 10
51.338602
 20
-1.119173
 30
0.0
  0
SPLINE
  5
120
100
AcDbEntity
  8
0
 62
7
100
AcDbSpline
 70
8
 71
3
 72
8
 73
4
 74
0
 40
0
 40
0
 40
0
 40
0
 40
1
 40
1
 40
1
 40
1
 10
51.338602
 20
-1.119173
 30
0.0
 10
50.700548
 20
-0.014031
 30
0.0
 10
49.521376
 20
0.666764
 30
0.0
 10
48.245268
 20
0.666764
 30
0.0
  0
LWPOLYLINE
  5
121
100
AcDbEntity
  8
0
 62
7
100
AcDbPolyline
 90
2
 70
0
 10
16.692880
 20
-36.242366
 30
0.0
 10
5.976620
 20
-36.242366
 30
0.0
  0
LWPOLYLINE
  5
122
100
AcDbEntity
  8
0
 62
7
100
AcDbPolyline
 90
2
 70
0
 10
38.122860
 20
-71.365486
 30
0.0
 10
16.692880
 20
-71.365486
 30
0.0
  0
LWPOLYLINE
  5
123
100
AcDbEntity
  8
0
 62
7
100
AcDbPolyline
 90
2
 70
0
 10
48.244760
 20
-10.641706
 30
0.0
 10
5.382260
 20
-10.641706
 30
0.0
  0
SPLINE
  5
124
100
AcDbEntity
  8
0
 62
7
100
AcDbSpline
 70
8
 71
3
 72
8
 73
4
 74
0
 40
0
 40
0
 40
0
 40
0
 40
1
 40
1
 40
1
 40
1
 10
5.978119
 20
-24.336370
 30
0.0
 10
3.851272
 20
-24.336370
 30
0.0
 10
1.885984
 20
-25.471029
 30
0.0
 10
0.822561
 20
-27.312932
 30
0.0
  0
SPLINE
  5
125
100
AcDbEntity
  8
0
 62
7
100
AcDbSpline
 70
8
 71
3
 72
8
 73
4
 74
0
 40
0
 40
0
 40
0
 40
0
 40
1
 40
1
 40
1
 40
1
 10
0.822561
 20
-27.312932
 30
0.0
 10
-0.240862
 20
-29.154836
 30
0.0
 10
-0.240862
 20
-31.424154
 30
0.0
 10
0.822561
 20
-33.266057
 30
0.0
  0
SPLINE
  5
126
100
AcDbEntity
  8
0
 62
7
100
AcDbSpline
 70
8
 71
3
 72
8
 73
4
 74
0
 40
0
 40
0
 40
0
 40
0
 40
1
 40
1
 40
1
 40
1
 10
0.822561
 20
-33.266057
 30
0.0
 10
1.885984
 20
-35.107961
 30
0.0
 10
3.851272
 20
-36.242620
 30
0.0
 10
5.978119
 20
-36.242620
 30
0.0
  0
LWPOLYLINE
  5
127
100
AcDbEntity
  8
0
 62
7
100
AcDbPolyline
 90
2
 70
0
 10
38.122860
 20
-36.242366
 30
0.0
 10
38.122860
 20
-71.365486
 30
0.0
  0
LWPOLYLINE
  5
128
100
AcDbEntity
  8
0
 62
7
100
AcDbPolyline
 90
2
 70
0
 10
48.839120
 20
-24.334846
 30
0.0
 10
5.976620
 20
-24.334846
 30
0.0
  0
SPLINE
  5
129
100
AcDbEntity
  8
0
 62
7
100
AcDbSpline
 70
8
 71
3
 72
8
 73
4
 74
0
 40
0
 40
0
 40
0
 40
0
 40
1
 40
1
 40
1
 40
1
 10
48.840644
 20
-28.689623
 30
0.0
 10
48.193505
 20
-28.689623
 30
0.0
 10
47.610087
 20
-29.079450
 30
0.0
 10
47.362437
 20
-29.677329
 30
0.0
  0
SPLINE
  5
12a
100
AcDbEntity
  8
0
 62
7
100
AcDbSpline
 70
8
 71
3
 72
8
 73
4
 74
0
 40
0
 40
0
 40
0
 40
0
 40
1
 40
1
 40
1
 40
1
 10
47.362437
 20
-29.677329
 30
0.0
 10
47.114788
 20
-30.275207
 30
0.0
 10
47.251677
 20
-30.963396
 30
0.0
 10
47.709274
 20
-31.420992
 30
0.0
  0
SPLINE
  5
12b
100
AcDbEntity
  8
0
 62
7
100
AcDbSpline
 70
8
 71
3
 72
8
 73
4
 74
0
 40
0
 40
0
 40
0
 40
0
 40
1
 40
1
 40
1
 40
1
 10
47.709274
 20
-31.420992
 30
0.0
 10
48.166870
 20
-31.878589
 30
0.0
 10
48.855058
 20
-32.015478
 30
0.0
 10
49.452937
 20
-31.767829
 30
0.0
  0
SPLINE
  5
12c
100
AcDbEntity
  8
0
 62
7
100
AcDbSpline
 70
8
 71
3
 72
8
 73
4
 74
0
 40
0
 40
0
 40
0
 40
0
 40
1
 40
1
 40
1
 40
1
 10
49.452937
 20
-31.767829
 30
0.0
 10
50.050816
 20
-31.520179
 30
0.0
 10
50.440643
 20
-30.936761
 30
0.0
 10
50.440643
 20
-30.289622
 30
0.0
  0
SPLINE
  5
12d
100
AcDbEntity
  8
0
 62
7
100
AcDbSpline
 70
8
 71
3
 72
8
 73
4
 74
0
 40
0
 40
0
 40
0
 40
0
 40
1
 40
1
 40
1
 40
1
 10
50.440643
 20
-30.289622
 30
0.0
 10
50.440643
 20
-29.405967
 30
0.0
 10
49.724299
 20
-28.689623
 30
0.0
 10
48.840644
 20
-28.689623
 30
0.0
  0
LWPOLYLINE
  5
12e
100
AcDbEntity
  8
0
 62
7
100
AcDbPolyline
 90
2
 70
0
 10
16.692880
 20
-71.365486
 30
0.0
 10
16.692880
 20
-36.242366
 30
0.0
  0
SPLINE
  5
12f
100
AcDbEntity
  8
0
 62
7
100
AcDbSpline
 70
8
 71
3
 72
8
 73
4
 74
0
 40
0
 40
0
 40
0
 40
0
 40
1
 40
1
 40
1
 40
1
 10
5.978119
 20
-28.689623
 30
0.0
 10
5.330979
 20
-28.689623
 30
0.0
 10
4.747561
 20
-29.079450
 30
0.0
 10
4.499912
 20
-29.677329
 30
0.0
  0
SPLINE
  5
130
100
AcDbEntity
  8
0
 62
7
100
AcDbSpline
 70
8
 71
3
 72
8
 73
4
 74
0
 40
0
 40
0
 40
0
 40
0
 40
1
 40
1
 40
1
 40
1
 10
4.499912
 20
-29.677329
 30
0.0
 10
4.252262
 20
-30.275207
 30
0.0
 10
4.389152
 20
-30.963396
 30
0.0
 10
4.846748
 20
-31.420992
 30
0.0
  0
SPLINE
  5
131
100
AcDbEntity
  8
0
 62
7
100
AcDbSpline
 70
8
 71
3
 72
8
 73
4
 74
0
 40
0
 40
0
 40
0
 40
0
 40
1
 40
1
 40
1
 40
1
 10
4.846748
 20
-31.420992
 30
0.0
 10
5.304345
 20
-31.878589
 30
0.0
 10
5.992533
 20
-32.015478
 30
0.0
 10
6.590412
 20
-31.767829
 30
0.0
  0
SPLINE
  5
132
100
AcDbEntity
  8
0
 62
7
100
AcDbSpline
 70
8
 71
3
 72
8
 73
4
 74
0
 40
0
 40
0
 40
0
 40
0
 40
1
 40
1
 40
1
 40
1
 10
6.590412
 20
-31.767829
 30
0.0
 10
7.188291
 20
-31.520179
 30
0.0
 10
7.578118
 20
-30.936761
 30
0.0
 10
7.578118
 20
-30.289622
 30
0.0
  0
SPLINE
  5
133
100
AcDbEntity
  8
0
 62
7
100
AcDbSpline
 70
8
 71
3
 72
8
 73
4
 74
0
 40
0
 40
0
 40
0
 40
0
 40
1
 40
1
 40
1
 40
1
 10
7.578118
 20
-30.289622
 30
0.0
 10
7.578118
 20
-29.865276
 30
0.0
 10
7.409547
 20
-29.458310
 30
0.0
 10
7.109489
 20
-29.158252
 30
0.0
  0
SPLINE
  5
134
100
AcDbEntity
  8
0
 62
7
100
AcDbSpline
 70
8
 71
3
 72
8
 73
4
 74
0
 40
0
 40
0
 40
0
 40
0
 40
1
 40
1
 40
1
 40
1
 10
7.109489
 20
-29.158252
 30
0.0
 10
6.809431
 20
-28.858193
 30
0.0
 10
6.402465
 20
-28.689623
 30
0.0
 10
5.978119
 20
-28.689623
 30
0.0
  0
LWPOLYLINE
  5
135
100
AcDbEntity
  8
0
 62
7
100
AcDbPolyline
 90
1
 70
1
 10
48.840644
 20
-28.689623
 30
0.0
  0
SPLINE
  5
136
100
AcDbEntity
  8
0
 62
7
100
AcDbSpline
 70
8
 71
3
 72
8
 73
4
 74
0
 40
0
 40
0
 40
0
 40
0
 40
1
 40
1
 40
1
 40
1
 10
48.244760
 20
-1.905500
 30
0.0
 10
47.840298
 20
-1.905500
 30
0.0
 10
47.475661
 20
-2.149143
 30
0.0
 10
47.320880
 20
-2.522817
 30
0.0
  0
SPLINE
  5
137
100
AcDbEntity
  8
0
 62
7
100
AcDbSpline
 70
8
 71
3
 72
8
 73
4
 74
0
 40
0
 40
0
 40
0
 40
0
 40
1
 40
1
 40
1
 40
1
 10
47.320880
 20
-2.522817
 30
0.0
 10
47.166099
 20
-2.896492
 30
0.0
 10
47.251655
 20
-3.326610
 30
0.0
 10
47.537653
 20
-3.612608
 30
0.0
  0
SPLINE
  5
138
100
AcDbEntity
  8
0
 62
7
100
AcDbSpline
 70
8
 71
3
 72
8
 73
4
 74
0
 40
0
 40
0
 40
0
 40
0
 40
1
 40
1
 40
1
 40
1
 10
47.537653
 20
-3.612608
 30
0.0
 10
47.823651
 20
-3.898606
 30
0.0
 10
48.253769
 20
-3.984162
 30
0.0
 10
48.627444
 20
-3.829381
 30
0.0
  0
SPLINE
  5
139
100
AcDbEntity
  8
0
 62
7
100
AcDbSpline
 70
8
 71
3
 72
8
 73
4
 74
0
 40
0
 40
0
 40
0
 40
0
 40
1
 40
1
 40
1
 40
1
 10
48.627444
 20
-3.829381
 30
0.0
 10
49.001118
 20
-3.674600
 30
0.0
 10
49.244761
 20
-3.309963
 30
0.0
 10
49.244761
 20
-2.905501
 30
0.0
  0
SPLINE
  5
13a
100
AcDbEntity
  8
0
 62
7
100
AcDbSpline
 70
8
 71
3
 72
8
 73
4
 74
0
 40
0
 40
0
 40
0
 40
0
 40
1
 40
1
 40
1
 40
1
 10
49.244761
 20
-2.905501
 30
0.0
 10
49.244761
 20
-2.640284
 30
0.0
 10
49.139404
 20
-2.385930
 30
0.0
 10
48.951867
 20
-2.198394
 30
0.0
  0
SPLINE
  5
13b
100
AcDbEntity
  8
0
 62
7
100
AcDbSpline
 70
8
 71
3
 72
8
 73
4
 74
0
 40
0
 40
0
 40
0
 40
0
 40
1
 40
1
 40
1
 40
1
 10
48.951867
 20
-2.198394
 30
0.0
 10
48.764331
 20
-2.010857
 30
0.0
 10
48.509977
 20
-1.905500
 30
0.0
 10
48.244760
 20
-1.905500
 30
0.0
  0
LWPOLYLINE
  5
13c
100
AcDbEntity
  8
0
 62
7
100
AcDbPolyline
 90
1
 70
1
 10
5.978119
 20
-28.689623
 30
0.0
  0
SPLINE
  5
13d
100
AcDbEntity
  8
0
 62
7
100
AcDbSpline
 70
8
 71
3
 72
8
 73
4
 74
0
 40
0
 40
0
 40
0
 40
0
 40
1
 40
1
 40
1
 40
1
 10
5.382285
 20
-1.905500
 30
0.0
 10
4.977823
 20
-1.905500
 30
0.0
 10
4.613186
 20
-2.149143
 30
0.0
 10
4.458405
 20
-2.522817
 30
0.0
  0
SPLINE
  5
13e
100
AcDbEntity
  8
0
 62
7
100
AcDbSpline
 70
8
 71
3
 72
8
 73
4
 74
0
 40
0
 40
0
 40
0
 40
0
 40
1
 40
1
 40
1
 40
1
 10
4.458405
 20
-2.522817
 30
0.0
 10
4.303624
 20
-2.896492
 30
0.0
 10
4.389180
 20
-3.326610
 30
0.0
 10
4.675178
 20
-3.612608
 30
0.0
  0
SPLINE
  5
13f
100
AcDbEntity
  8
0
 62
7
100
AcDbSpline
 70
8
 71
3
 72
8
 73
4
 74
0
 40
0
 40
0
 40
0
 40
0
 40
1
 40
1
 40
1
 40
1
 10
4.675178
 20
-3.612608
 30
0.0
 10
4.961176
 20
-3.898606
 30
0.0
 10
5.391294
 20
-3.984162
 30
0.0
 10
5.764969
 20
-3.829381
 30
0.0
  0
SPLINE
  5
140
100
AcDbEntity
  8
0
 62
7
100
AcDbSpline
 70
8
 71
3
 72
8
 73
4
 74
0
 40
0
 40
0
 40
0
 40
0
 40
1
 40
1
 40
1
 40
1
 10
5.764969
 20
-3.829381
 30
0.0
 10
6.138644
 20
-3.674600
 30
0.0
 10
6.382286
 20
-3.309963
 30
0.0
 10
6.382286
 20
-2.905501
 30
0.0
  0
SPLINE
  5
141
100
AcDbEntity
  8
0
 62
7
100
AcDbSpline
 70
8
 71
3
 72
8
 73
4
 74
0
 40
0
 40
0
 40
0
 40
0
 40
1
 40
1
 40
1
 40
1
 10
6.382286
 20
-2.905501
 30
0.0
 10
6.382286
 20
-2.640284
 30
0.0
 10
6.276929
 20
-2.385930
 30
0.0
 10
6.089393
 20
-2.198394
 30
0.0
  0
SPLINE
  5
142
100
AcDbEntity
  8
0
 62
7
100
AcDbSpline
 70
8
 71
3
 72
8
 73
4
 74
0
 40
0
 40
0
 40
0
 40
0
 40
1
 40
1
 40
1
 40
1
 10
6.089393
 20
-2.198394
 30
0.0
 10
5.901856
 20
-2.010857
 30
0.0
 10
5.647502
 20
-1.905500
 30
0.0
 10
5.382285
 20
-1.905500
 30
0.0
  0
LWPOLYLINE
  5
143
100
AcDbEntity
  8
0
 62
7
100
AcDbPolyline
 90
1
 70
1
 10
48.244760
 20
-1.905500
 30
0.0
  0
LWPOLYLINE
  5
144
100
AcDbEntity
  8
0
 62
7
100
AcDbPolyline
 90
1
 70
1
 10
5.382285
 20
-1.905500
 30
0.0
  0
ENDSEC
  0
SECTION
  2
OBJECTS
  0
DICTIONARY
  5
C
330
0
100
AcDbDictionary
  3
ACAD_GROUP
350
D
  3
ACAD_MLINESTYLE
350
17
  0
DICTIONARY
  5
D
330
C
100
AcDbDictionary
  0
DICTIONARY
  5
1A
330
C
100
AcDbDictionary
  0
DICTIONARY
  5
17
330
C
100
AcDbDictionary
  3
STANDARD
350
18
  0
DICTIONARY
  5
19
330
C
100
AcDbDictionary
  0
ENDSEC
  0
EOF
