<?xml version="1.0" standalone="no"?>
 <!DOCTYPE svg PUBLIC "-//W3C//DTD SVG 1.1//EN" 
 "http://www.w3.org/Graphics/SVG/1.1/DTD/svg11.dtd"> 
<svg
  xmlns:svg="http://www.w3.org/2000/svg"
  xmlns="http://www.w3.org/2000/svg"
  xmlns:xlink="http://www.w3.org/1999/xlink"
  version="1.1"
  width="26.675080cm" height="11.435080cm" viewBox="0 0 105020 45020">
<title>SVG Picture created as ISOGamer2-brd.svg date 2021/05/03 11:31:40 </title>
  <desc>Picture generated by PCBNEW </desc>
<g style="fill:#000000; fill-opacity:1;stroke:#000000; stroke-opacity:1;
stroke-linecap:round; stroke-linejoin:round;"
 transform="translate(0 0) scale(1 1)">
</g>
<g style="fill:#000000; fill-opacity:0.0; 
stroke:#000000; stroke-width:-0.000393701; stroke-opacity:1; 
stroke-linecap:round; stroke-linejoin:round;">
<g >
</g>
<g >
</g>
<g >
</g>
<g >
</g>
<g >
</g>
<g >
</g>
<g >
</g>
<g >
</g>
<g >
</g>
<g >
</g>
<g >
</g>
<g >
</g>
<g >
</g>
<g >
</g>
<g >
</g>
<g >
</g>
<g >
</g>
<g >
</g>
<g >
</g>
<g >
</g>
<g >
</g>
<g >
</g>
<g >
</g>
<g >
</g>
<g >
</g>
<g >
</g>
<g >
</g>
<g >
</g>
<g >
</g>
<g >
</g>
<g >
</g>
<g >
</g>
<g >
</g>
<g >
</g>
<g >
</g>
<g >
</g>
<g >
</g>
<g >
</g>
<g >
</g>
<g >
</g>
<g >
</g>
<g >
</g>
<g >
</g>
<g >
</g>
<g >
</g>
<g >
</g>
<g >
</g>
<g >
</g>
</g>
<g style="fill:#000000; fill-opacity:0.0; 
stroke:#000000; stroke-width:-0.000393701; stroke-opacity:1; 
stroke-linecap:round; stroke-linejoin:round;">
</g>
<g style="fill:#000000; fill-opacity:0.0; 
stroke:#000000; stroke-width:19.685; stroke-opacity:1; 
stroke-linecap:round; stroke-linejoin:round;">
<path d="M100322 10322
L97744 10322
" />
<path d="M104072 10
L97744 10
" />
<path d="M97744 10322
L97744 10
" />
<path d="M4697 10322
L4697 32822
" />
<circle cx="87666.5" cy="43369.6" r="629.921" /> 
<circle cx="102198" cy="2822.67" r="1062.99" /> 
<circle cx="16884.9" cy="1650.65" r="629.921" /> 
<path d="M100322 10322
L100322 32822
" />
<path d="M104073 45010.4 A937.5 937.5 0.0 0 0 105010 44072.9" />
<circle cx="52510.1" cy="43369.6" r="629.921" /> 
<path d="M90244 4697
L90244 10
" />
<circle cx="52510.1" cy="1650.65" r="629.921" /> 
<path d="M105010 44072
L105010 947
" />
<path d="M6572 32822
L6572 40322
" />
<path d="M947.343 10.0232 A937.5 937.5 0.0 0 0 9.84291 947.523" />
<circle cx="2822.92" cy="42197.7" r="1062.99" /> 
<circle cx="16884.9" cy="43369.6" r="629.921" /> 
<path d="M947 10
L90244 10
" />
<circle cx="87666.5" cy="1650.65" r="629.921" /> 
<path d="M90244 4697
L16416 4697
" />
<circle cx="2822.35" cy="2822.35" r="1062.99" /> 
<path d="M10 44072
L9 947
" />
<circle cx="102198" cy="42197.7" r="1062.99" /> 
<path d="M6572 40322
L98447 40322
" />
<path d="M98447 40322
L98447 32822
" />
<path d="M16416 10322
L16416 4697
" />
<path d="M105010 947.343 A937.5 937.5 0.0 0 0 104073 9.84291" />
<path d="M4697 10322
L16416 10322
" />
<path d="M98447 32822
L100322 32822
" />
<path d="M10.422 44072.7 A937.5 937.5 0.0 0 0 947.922 45010.2" />
<path d="M4697 32822
L6572 32822
" />
<path d="M947 45010
L104072 45010
" />
<g >
</g>
<g >
</g>
<g >
</g>
<g >
</g>
<g >
</g>
<g >
</g>
<g >
</g>
<g >
</g>
<g >
</g>
<g >
</g>
<g >
</g>
<g >
</g>
<g >
</g>
<g >
</g>
<g >
</g>
<g >
</g>
<g >
</g>
<g >
</g>
<g >
</g>
<g >
</g>
<g >
</g>
<g >
</g>
<g >
</g>
<g >
</g>
<g >
</g>
<g >
</g>
<g >
</g>
<g >
</g>
<g >
</g>
<g >
</g>
<g >
</g>
<g >
</g>
<g >
</g>
<g >
</g>
<g >
</g>
<g >
</g>
<g >
</g>
<g >
</g>
<g >
</g>
<g >
</g>
<g >
</g>
<g >
</g>
<g >
</g>
<g >
</g>
<g >
</g>
<g >
</g>
<g >
</g>
<g >
</g>
</g> 
</svg>
