<?xml version="1.0" encoding="UTF-8" standalone="no"?>
<svg
   xmlns:dc="http://purl.org/dc/elements/1.1/"
   xmlns:cc="http://creativecommons.org/ns#"
   xmlns:rdf="http://www.w3.org/1999/02/22-rdf-syntax-ns#"
   xmlns:svg="http://www.w3.org/2000/svg"
   xmlns="http://www.w3.org/2000/svg"
   xmlns:sodipodi="http://sodipodi.sourceforge.net/DTD/sodipodi-0.dtd"
   xmlns:inkscape="http://www.inkscape.org/namespaces/inkscape"
   version="1.1"
   width="25.483820cm"
   height="9.766300cm"
   viewBox="0 0 100330 38450"
   id="svg2014"
   sodipodi:docname="SAS ISOGamer Plate 1x.svg.2021_05_03_11_52_11.0.svg"
   inkscape:version="1.0.2-2 (e86c870879, 2021-01-15)">
  <metadata
     id="metadata2020">
    <rdf:RDF>
      <cc:Work
         rdf:about="">
        <dc:format>image/svg+xml</dc:format>
        <dc:type
           rdf:resource="http://purl.org/dc/dcmitype/StillImage" />
        <dc:title>SVG Picture created as ISOGamer2-brd.svg date 2021/05/03 11:29:46 </dc:title>
      </cc:Work>
    </rdf:RDF>
  </metadata>
  <defs
     id="defs2018" />
  <sodipodi:namedview
     pagecolor="#ffffff"
     bordercolor="#666666"
     borderopacity="1"
     objecttolerance="10"
     gridtolerance="10"
     guidetolerance="10"
     inkscape:pageopacity="0"
     inkscape:pageshadow="2"
     inkscape:window-width="1920"
     inkscape:window-height="1017"
     id="namedview2016"
     showgrid="false"
     inkscape:zoom="1"
     inkscape:cx="470.18393"
     inkscape:cy="230.68452"
     inkscape:window-x="-8"
     inkscape:window-y="-8"
     inkscape:window-maximized="1"
     inkscape:current-layer="svg2014"
     inkscape:document-rotation="0" />
  <title
     id="title1016">SVG Picture created as ISOGamer2-brd.svg date 2021/05/03 11:29:46 </title>
  <desc
     id="desc1018">Picture generated by PCBNEW </desc>
  <g
     style="fill:#000000; fill-opacity:1;stroke:#000000; stroke-opacity:1; stroke-linecap:round; stroke-linejoin:round;"
     transform="translate(0 0) scale(1 1)"
     id="g1020" />
  <g
     style="fill:#000000; fill-opacity:0.0;  stroke:#000000; stroke-width:-0.000393701; stroke-opacity:1;  stroke-linecap:round; stroke-linejoin:round;"
     id="g1022" />
  <g
     style="fill:#000000; fill-opacity:0.0;  stroke:#000000; stroke-width:47.2441; stroke-opacity:1;  stroke-linecap:round; stroke-linejoin:round;"
     id="g1762">
    <path
       d="m 96045.998,28547 h -5511 m -0.999,-11.008 -5.504,-7494.013 m 0,0 L 89597,21047 m 0,0 v -5512 m 0,0 6455.968,-11.22 m 0,0 -6.97,13023.22"
       id="path1056"
       sodipodi:nodetypes="cccccccccccc" />
    <path
       d="m 55734,21047 h -5512 v -5512 h 5512 z"
       id="path1116"
       sodipodi:nodetypes="ccccc" />
    <path
       d="m 94171,8035 v 5512 H 88660 V 8035 Z"
       id="path1120"
       sodipodi:nodetypes="ccccc" />
    <path
       d="m 27722,21047 v -5512 h 5512 v 5512 z"
       id="path1130"
       sodipodi:nodetypes="ccccc" />
    <path
       d="m 57722,15535 h 5512 v 5512 h -5512 z"
       id="path1136"
       sodipodi:nodetypes="ccccc" />
    <path
       d="M 83859,13547 H 78347 V 8035 h 5512 z"
       id="path1156"
       sodipodi:nodetypes="ccccc" />
    <path
       d="m 59597,23035 h 5512 v 5512 h -5512 z"
       id="path1160"
       sodipodi:nodetypes="ccccc" />
    <path
       d="m 80109,23035 v 5512 h -5512 v -5512 z"
       id="path1174"
       sodipodi:nodetypes="ccccc" />
    <path
       d="m 89597,30535 h 5512 v 5512 h -5512 z"
       id="path1176"
       sodipodi:nodetypes="ccccc" />
    <path
       d="m 38859,8035 v 5512 H 33347 V 8035 Z"
       id="path1190"
       sodipodi:nodetypes="ccccc" />
    <path
       d="m 52097,23035 h 5512 v 5512 h -5512 z"
       id="path1200"
       sodipodi:nodetypes="ccccc" />
    <path
       d="M 25847,13547 V 8035 h 5512 v 5512 z"
       id="path1210"
       sodipodi:nodetypes="ccccc" />
    <path
       d="m 80222,15535 h 5512 v 5512 h -5512 z"
       id="path1216"
       sodipodi:nodetypes="ccccc" />
    <path
       d="M 23859,13547 H 18347 V 8035 h 5512 z"
       id="path1270"
       sodipodi:nodetypes="ccccc" />
    <path
       d="m 3347,8035 h 5512 v 5512 H 3347 Z"
       id="path1274"
       sodipodi:nodetypes="ccccc" />
    <path
       d="m 25734,21047 h -5512 v -5512 h 5512 z"
       id="path1286"
       sodipodi:nodetypes="ccccc" />
    <path
       d="M 10734,36047 H 5222 v -5512 h 5512 z"
       id="path1294"
       sodipodi:nodetypes="ccccc" />
    <path
       d="M 46359,13547 H 40847 V 8035 h 5512 z"
       id="path1302"
       sodipodi:nodetypes="ccccc" />
    <path
       d="m 67097,28547 v -5512 h 5512 v 5512 z"
       id="path1308"
       sodipodi:nodetypes="ccccc" />
    <path
       d="m 82097,28547 v -5512 h 5512 v 5512 z"
       id="path1316"
       sodipodi:nodetypes="ccccc" />
    <path
       d="m 87609,36047 h -5512 v -5512 h 5512 z"
       id="path1326"
       sodipodi:nodetypes="ccccc" />
    <path
       d="m 55847,8035 h 5512 v 5512 h -5512 z"
       id="path1330"
       sodipodi:nodetypes="ccccc" />
    <path
       d="m 48347,8035 h 5512 v 5512 h -5512 z"
       id="path1338"
       sodipodi:nodetypes="ccccc" />
    <path
       d="m 18234,21047 h -5512 v -5512 h 5512 z"
       id="path1358"
       sodipodi:nodetypes="ccccc" />
    <path
       d="m 42609,28547 h -5512 v -5512 h 5512 z"
       id="path1366"
       sodipodi:nodetypes="ccccc" />
    <path
       d="m 70734,21047 h -5512 v -5512 h 5512 z"
       id="path1414"
       sodipodi:nodetypes="ccccc" />
    <path
       d="m 76359,8035 v 5512 H 70847 V 8035 Z"
       id="path1424"
       sodipodi:nodetypes="ccccc" />
    <path
       d="m 12722,30535 h 5512 v 5512 h -5512 z"
       id="path1426"
       sodipodi:nodetypes="ccccc" />
    <path
       d="m 14597,23035 h 5512 v 5512 h -5512 z"
       id="path1434"
       sodipodi:nodetypes="ccccc" />
    <path
       d="m 22097,28547 v -5512 h 5512 v 5512 z"
       id="path1444"
       sodipodi:nodetypes="ccccc" />
    <path
       d="m 42722,15535 h 5512 v 5512 h -5512 z"
       id="path1450"
       sodipodi:nodetypes="ccccc" />
    <path
       d="m 78234,15535 v 5512 h -5512 v -5512 z"
       id="path1464"
       sodipodi:nodetypes="ccccc" />
    <path
       d="m 4283.7793,15535 h 5511 m 0.2207,0.742 -3.1691,7496.54 m 0,0 947.5111,7.024 m 0,0 -6.342,5506.238 m 0,0 -6455.9105,5.57 m 0,0 L 4285,15535"
       id="path1466"
       sodipodi:nodetypes="cccccccccccc" />
    <path
       d="m 35109,28547 h -5512 v -5512 h 5512 z"
       id="path1478"
       sodipodi:nodetypes="ccccc" />
    <path
       d="m 35222,21047 v -5512 h 5512 v 5512 z"
       id="path1484"
       sodipodi:nodetypes="ccccc" />
    <path
       d="m 80109,36047 -6455.25,10e-4 H 25753.336 L 20222,36047 v -5512 l 59886.05,-0.92 z"
       id="path1494"
       sodipodi:nodetypes="ccccccc" />
    <path
       d="M 16359,13547 H 10847 V 8035 h 5512 z"
       id="path1502"
       sodipodi:nodetypes="ccccc" />
    <path
       d="M 63347,13547 V 8035 h 5512 v 5512 z"
       id="path1516"
       sodipodi:nodetypes="ccccc" />
    <path
       d="m 44597,23035 h 5512 v 5512 h -5512 z"
       id="path1522"
       sodipodi:nodetypes="ccccc" />
    <g
       id="g1570" />
    <g
       id="g1572" />
    <g
       id="g1574" />
    <g
       id="g1576" />
    <g
       id="g1578" />
    <g
       id="g1580" />
    <g
       id="g1582" />
    <g
       id="g1584" />
    <g
       id="g1586" />
    <g
       id="g1588" />
    <g
       id="g1590" />
    <g
       id="g1592" />
    <g
       id="g1594" />
    <g
       id="g1596" />
    <g
       id="g1598" />
    <g
       id="g1600" />
    <g
       id="g1602" />
    <g
       id="g1604" />
    <g
       id="g1606" />
    <g
       id="g1608" />
    <g
       id="g1610" />
    <g
       id="g1612" />
    <g
       id="g1614" />
    <g
       id="g1616" />
    <g
       id="g1618" />
    <g
       id="g1620" />
    <g
       id="g1622" />
    <g
       id="g1624" />
    <g
       id="g1626" />
    <g
       id="g1628" />
    <g
       id="g1630" />
    <g
       id="g1632" />
    <g
       id="g1634" />
    <g
       id="g1636" />
    <g
       id="g1638" />
    <g
       id="g1640" />
    <g
       id="g1642" />
    <g
       id="g1644" />
    <g
       id="g1646" />
    <g
       id="g1648" />
    <g
       id="g1650" />
    <g
       id="g1652" />
    <g
       id="g1654" />
    <g
       id="g1656" />
    <g
       id="g1658" />
    <g
       id="g1660" />
    <g
       id="g1662" />
    <g
       id="g1664" />
    <g
       id="g1666" />
    <g
       id="g1668" />
    <g
       id="g1670" />
    <g
       id="g1672" />
    <g
       id="g1674" />
    <g
       id="g1676" />
    <g
       id="g1678" />
    <g
       id="g1680" />
    <g
       id="g1682" />
    <g
       id="g1684" />
    <g
       id="g1686" />
    <g
       id="g1688" />
    <g
       id="g1690" />
    <g
       id="g1692" />
    <g
       id="g1694" />
    <g
       id="g1696" />
    <g
       id="g1698" />
    <g
       id="g1700" />
    <g
       id="g1702" />
    <g
       id="g1704" />
    <g
       id="g1706" />
    <g
       id="g1708" />
    <g
       id="g1710" />
    <g
       id="g1712" />
    <g
       id="g1714" />
    <g
       id="g1716" />
    <g
       id="g1718" />
    <g
       id="g1720" />
    <g
       id="g1722" />
    <g
       id="g1724" />
    <g
       id="g1726" />
    <g
       id="g1728" />
    <g
       id="g1730" />
    <g
       id="g1732" />
    <g
       id="g1734" />
    <g
       id="g1736" />
    <g
       id="g1738" />
    <g
       id="g1740" />
    <g
       id="g1742" />
    <g
       id="g1744" />
    <g
       id="g1746" />
    <g
       id="g1748" />
    <g
       id="g1750" />
    <g
       id="g1752" />
    <g
       id="g1754" />
    <g
       id="g1756" />
    <g
       id="g1758" />
    <g
       id="g1760" />
  </g>
  <g
     style="fill:#000000; fill-opacity:0.0;  stroke:#000000; stroke-width:47.2441; stroke-opacity:1;  stroke-linecap:round; stroke-linejoin:round;"
     id="g1764" />
  <g
     style="fill:#000000; fill-opacity:0.0;  stroke:#000000; stroke-width:19.685; stroke-opacity:1;  stroke-linecap:round; stroke-linejoin:round;"
     id="g2012">
    <path
       d="M14540.5 1416.44 A468.75 468.75 0.0 0 0 14071.8 1885.19"
       id="path1766" />
    <path
       d="M9.84291 30947.8 A937.5 937.5 0.0 0 0 947.343 31885.3"
       id="path1768" />
    <path
       d="M99384.8 31885.3 A937.5 937.5 0.0 0 0 100322 30947.8"
       id="path1770" />
    <path
       d="M100322 7041 L100322 30947 "
       id="path1772" />
    <path
       d="M99384 31885 L98447 31885 "
       id="path1774" />
    <path
       d="M98447 31885 L98447 37510 "
       id="path1776" />
    <path
       d="M2822 38447 L97509 38447 "
       id="path1778" />
    <path
       d="M11728 4697 L947 4697 "
       id="path1780" />
    <path
       d="M1884 31885 L1884 37510 "
       id="path1782" />
    <path
       d="M9 30947 L9 7041 "
       id="path1784" />
    <path
       d="M86025 7041 L14072 7041 "
       id="path1786" />
    <path
       d="M947 31885 L1884 31885 "
       id="path1788" />
    <path
       d="M85556 1416 L14540 1416 "
       id="path1790" />
    <path
       d="M1884.84 37510.3 A937.5 937.5 0.0 0 0 2822.34 38447.8"
       id="path1792" />
    <path
       d="M97509.8 38447.8 A937.5 937.5 0.0 0 0 98447.3 37510.3"
       id="path1794" />
    <path
       d="M9 5635 L9 7041 "
       id="path1796" />
    <path
       d="M100322 5635.34 A937.5 937.5 0.0 0 0 99384.8 4697.84"
       id="path1798" />
    <path
       d="M87899 4697 L99384 4697 "
       id="path1800" />
    <path
       d="M100322 5635 L100322 7041 "
       id="path1802" />
    <path
       d="M947.343 4697.84 A937.5 937.5 0.0 0 0 9.84291 5635.34"
       id="path1804" />
    <path
       d="M14071 7041 L14071 1885 "
       id="path1806" />
    <path
       d="M12665.6 10.1941 A937.504 937.504 0.0 0 0 11728.1 947.698"
       id="path1808" />
    <path
       d="M87899 10 L12665 10 "
       id="path1810" />
    <path
       d="M86024 1885 L86025 7041 "
       id="path1812" />
    <path
       d="M11728 947 L11728 4697 "
       id="path1814" />
    <path
       d="M86024.9 1885.19 A468.75 468.75 0.0 0 0 85556.2 1416.44"
       id="path1816" />
    <path
       d="M87899 9 L87899 4697 "
       id="path1818" />
    <g
       id="g1820" />
    <g
       id="g1822" />
    <g
       id="g1824" />
    <g
       id="g1826" />
    <g
       id="g1828" />
    <g
       id="g1830" />
    <g
       id="g1832" />
    <g
       id="g1834" />
    <g
       id="g1836" />
    <g
       id="g1838" />
    <g
       id="g1840" />
    <g
       id="g1842" />
    <g
       id="g1844" />
    <g
       id="g1846" />
    <g
       id="g1848" />
    <g
       id="g1850" />
    <g
       id="g1852" />
    <g
       id="g1854" />
    <g
       id="g1856" />
    <g
       id="g1858" />
    <g
       id="g1860" />
    <g
       id="g1862" />
    <g
       id="g1864" />
    <g
       id="g1866" />
    <g
       id="g1868" />
    <g
       id="g1870" />
    <g
       id="g1872" />
    <g
       id="g1874" />
    <g
       id="g1876" />
    <g
       id="g1878" />
    <g
       id="g1880" />
    <g
       id="g1882" />
    <g
       id="g1884" />
    <g
       id="g1886" />
    <g
       id="g1888" />
    <g
       id="g1890" />
    <g
       id="g1892" />
    <g
       id="g1894" />
    <g
       id="g1896" />
    <g
       id="g1898" />
    <g
       id="g1900" />
    <g
       id="g1902" />
    <g
       id="g1904" />
    <g
       id="g1906" />
    <g
       id="g1908" />
    <g
       id="g1910" />
    <g
       id="g1912" />
    <g
       id="g1914" />
    <g
       id="g1916" />
    <g
       id="g1918" />
    <g
       id="g1920" />
    <g
       id="g1922" />
    <g
       id="g1924" />
    <g
       id="g1926" />
    <g
       id="g1928" />
    <g
       id="g1930" />
    <g
       id="g1932" />
    <g
       id="g1934" />
    <g
       id="g1936" />
    <g
       id="g1938" />
    <g
       id="g1940" />
    <g
       id="g1942" />
    <g
       id="g1944" />
    <g
       id="g1946" />
    <g
       id="g1948" />
    <g
       id="g1950" />
    <g
       id="g1952" />
    <g
       id="g1954" />
    <g
       id="g1956" />
    <g
       id="g1958" />
    <g
       id="g1960" />
    <g
       id="g1962" />
    <g
       id="g1964" />
    <g
       id="g1966" />
    <g
       id="g1968" />
    <g
       id="g1970" />
    <g
       id="g1972" />
    <g
       id="g1974" />
    <g
       id="g1976" />
    <g
       id="g1978" />
    <g
       id="g1980" />
    <g
       id="g1982" />
    <g
       id="g1984" />
    <g
       id="g1986" />
    <g
       id="g1988" />
    <g
       id="g1990" />
    <g
       id="g1992" />
    <g
       id="g1994" />
    <g
       id="g1996" />
    <g
       id="g1998" />
    <g
       id="g2000" />
    <g
       id="g2002" />
    <g
       id="g2004" />
    <g
       id="g2006" />
    <g
       id="g2008" />
    <g
       id="g2010" />
  </g>
</svg>
