<?xml version="1.0" standalone="no"?>
 <!DOCTYPE svg PUBLIC "-//W3C//DTD SVG 1.1//EN" 
 "http://www.w3.org/Graphics/SVG/1.1/DTD/svg11.dtd"> 
<svg
  xmlns:svg="http://www.w3.org/2000/svg"
  xmlns="http://www.w3.org/2000/svg"
  xmlns:xlink="http://www.w3.org/1999/xlink"
  version="1.1"
  width="5.481320cm" height="7.205980cm" viewBox="0 0 21580 28370">
<title>SVG Picture created as ISOGamer2-brd.svg date 2021/05/04 08:10:08 </title>
  <desc>Picture generated by PCBNEW </desc>
<g style="fill:#000000; fill-opacity:1;stroke:#000000; stroke-opacity:1;
stroke-linecap:round; stroke-linejoin:round;"
 transform="translate(0 0) scale(1 1)">
</g>
<g style="fill:#000000; fill-opacity:0.0; 
stroke:#000000; stroke-width:-0.000393701; stroke-opacity:1; 
stroke-linecap:round; stroke-linejoin:round;">
<g >
</g>
<g >
</g>
<g >
</g>
<g >
</g>
<g >
</g>
<g >
</g>
<g >
</g>
<g >
</g>
<g >
</g>
<g >
</g>
<g >
</g>
<g >
</g>
<g >
</g>
<g >
</g>
<g >
</g>
<g >
</g>
<g >
</g>
<g >
</g>
<g >
</g>
<g >
</g>
<g >
</g>
<g >
</g>
<g >
</g>
<g >
</g>
<g >
</g>
<g >
</g>
<g >
</g>
<g >
</g>
<g >
</g>
<g >
</g>
<g >
</g>
<g >
</g>
<g >
</g>
<g >
</g>
<g >
</g>
<g >
</g>
<g >
</g>
<g >
</g>
<g >
</g>
<g >
</g>
<g >
</g>
<g >
</g>
<g >
</g>
<g >
</g>
<g >
</g>
<g >
</g>
<g >
</g>
<g >
</g>
</g>
<g style="fill:#000000; fill-opacity:0.0; 
stroke:#000000; stroke-width:-0.000393701; stroke-opacity:1; 
stroke-linecap:round; stroke-linejoin:round;">
</g>
<g style="fill:#C2C200; fill-opacity:0.0; 
stroke:#C2C200; stroke-width:-0.000393701; stroke-opacity:1; 
stroke-linecap:round; stroke-linejoin:round;">
</g>
<g style="fill:#C2C200; fill-opacity:0.0; 
stroke:#C2C200; stroke-width:19.685; stroke-opacity:1; 
stroke-linecap:round; stroke-linejoin:round;">
<circle cx="2119.01" cy="1416.25" r="393.701" /> 
<circle cx="18994" cy="1416.25" r="393.701" /> 
<circle cx="2353.59" cy="12197.4" r="629.921" /> 
<circle cx="19228.6" cy="12197.4" r="629.921" /> 
<path d="M2119.22 4462.97 A1875 1875 0.0 0 0 2119.22 8212.97" />
<path d="M19228.6 14541.1 A2343.75 2343.75 0.0 0 0 19228.6 9853.6" />
<path d="M18994 2822
L2119 2822
" />
<circle cx="18994" cy="6338.13" r="629.921" /> 
<path d="M2119 8212
L18994 8212
" />
<path d="M2119.22 9.84291 A1406.25 1406.25 0.0 0 0 2119.22 2822.35" />
<path d="M18994.2 8212.97 A1875 1875 0.0 0 0 18994.2 4462.97" />
<circle cx="2119.01" cy="6338.13" r="629.921" /> 
<path d="M18994 4462
L2119 4462
" />
<path d="M2119 9
L18994 9
" />
<path d="M18994.2 2822.35 A1406.25 1406.25 0.0 0 0 18994.2 9.84291" />
<path d="M15009 14541
L19228 14541
" />
<path d="M6572 14541
L2353 14541
" />
<path d="M15009 28369
L6572 28369
" />
<path d="M15009 14541
L15009 28369
" />
<path d="M2353.59 9853.6 A2343.75 2343.75 0.0 0 0 2353.59 14541.1" />
<path d="M6572 28369
L6572 14541
" />
<path d="M19228 9853
L2353 9853
" />
<g >
</g>
<g >
</g>
<g >
</g>
<g >
</g>
<g >
</g>
<g >
</g>
<g >
</g>
<g >
</g>
<g >
</g>
<g >
</g>
<g >
</g>
<g >
</g>
<g >
</g>
<g >
</g>
<g >
</g>
<g >
</g>
<g >
</g>
<g >
</g>
<g >
</g>
<g >
</g>
<g >
</g>
<g >
</g>
<g >
</g>
<g >
</g>
<g >
</g>
<g >
</g>
<g >
</g>
<g >
</g>
<g >
</g>
<g >
</g>
<g >
</g>
<g >
</g>
<g >
</g>
<g >
</g>
<g >
</g>
<g >
</g>
<g >
</g>
<g >
</g>
<g >
</g>
<g >
</g>
<g >
</g>
<g >
</g>
<g >
</g>
<g >
</g>
<g >
</g>
<g >
</g>
<g >
</g>
<g >
</g>
</g> 
</svg>
