<?xml version="1.0" standalone="no"?>
 <!DOCTYPE svg PUBLIC "-//W3C//DTD SVG 1.1//EN" 
 "http://www.w3.org/Graphics/SVG/1.1/DTD/svg11.dtd"> 
<svg
  xmlns:svg="http://www.w3.org/2000/svg"
  xmlns="http://www.w3.org/2000/svg"
  xmlns:xlink="http://www.w3.org/1999/xlink"
  version="1.1"
  width="5.481320cm" height="3.515360cm" viewBox="0 0 21580 13840">
<title>SVG Picture created as ISOGamer2-brd.svg date 2021/05/04 08:11:50 </title>
  <desc>Picture generated by PCBNEW </desc>
<g style="fill:#000000; fill-opacity:1;stroke:#000000; stroke-opacity:1;
stroke-linecap:round; stroke-linejoin:round;"
 transform="translate(0 0) scale(1 1)">
</g>
<g style="fill:#000000; fill-opacity:0.0; 
stroke:#000000; stroke-width:-0.000393701; stroke-opacity:1; 
stroke-linecap:round; stroke-linejoin:round;">
<g >
</g>
<g >
</g>
<g >
</g>
<g >
</g>
<g >
</g>
<g >
</g>
<g >
</g>
<g >
</g>
<g >
</g>
<g >
</g>
<g >
</g>
<g >
</g>
<g >
</g>
<g >
</g>
<g >
</g>
<g >
</g>
<g >
</g>
<g >
</g>
<g >
</g>
<g >
</g>
<g >
</g>
<g >
</g>
<g >
</g>
<g >
</g>
<g >
</g>
<g >
</g>
<g >
</g>
<g >
</g>
<g >
</g>
<g >
</g>
<g >
</g>
<g >
</g>
<g >
</g>
<g >
</g>
<g >
</g>
<g >
</g>
<g >
</g>
<g >
</g>
<g >
</g>
<g >
</g>
<g >
</g>
<g >
</g>
<g >
</g>
<g >
</g>
<g >
</g>
<g >
</g>
<g >
</g>
<g >
</g>
</g>
<g style="fill:#000000; fill-opacity:0.0; 
stroke:#000000; stroke-width:-0.000393701; stroke-opacity:1; 
stroke-linecap:round; stroke-linejoin:round;">
</g>
<g style="fill:#000000; fill-opacity:0.0; 
stroke:#000000; stroke-width:19.685; stroke-opacity:1; 
stroke-linecap:round; stroke-linejoin:round;">
<path d="M19228 2822
L2353 2822
" />
<path d="M19228.6 13838 A2343.75 2343.75 0.0 0 0 19228.6 9150.48" />
<circle cx="19228.4" cy="6338.13" r="629.921" /> 
<path d="M2353 9
L19228 9
" />
<circle cx="2353.39" cy="6338.13" r="629.921" /> 
<path d="M19228.6 2822.35 A1406.25 1406.25 0.0 0 0 19228.6 9.84291" />
<path d="M19228 4462
L2353 4462
" />
<path d="M2353 13837
L19228 13837
" />
<path d="M2353.59 4462.97 A1875 1875 0.0 0 0 2353.59 8212.97" />
<path d="M2353.59 9.84291 A1406.25 1406.25 0.0 0 0 2353.59 2822.35" />
<path d="M2353.59 9150.48 A2343.75 2343.75 0.0 0 0 2353.59 13838" />
<path d="M19228.6 8212.97 A1875 1875 0.0 0 0 19228.6 4462.97" />
<path d="M19228 9150
L2353 9150
" />
<path d="M2353 8212
L19228 8212
" />
<circle cx="2353.59" cy="11494.2" r="629.921" /> 
<circle cx="19228.6" cy="11494.2" r="629.921" /> 
<circle cx="2353.39" cy="1416.25" r="393.701" /> 
<circle cx="19228.4" cy="1416.25" r="393.701" /> 
<g >
</g>
<g >
</g>
<g >
</g>
<g >
</g>
<g >
</g>
<g >
</g>
<g >
</g>
<g >
</g>
<g >
</g>
<g >
</g>
<g >
</g>
<g >
</g>
<g >
</g>
<g >
</g>
<g >
</g>
<g >
</g>
<g >
</g>
<g >
</g>
<g >
</g>
<g >
</g>
<g >
</g>
<g >
</g>
<g >
</g>
<g >
</g>
<g >
</g>
<g >
</g>
<g >
</g>
<g >
</g>
<g >
</g>
<g >
</g>
<g >
</g>
<g >
</g>
<g >
</g>
<g >
</g>
<g >
</g>
<g >
</g>
<g >
</g>
<g >
</g>
<g >
</g>
<g >
</g>
<g >
</g>
<g >
</g>
<g >
</g>
<g >
</g>
<g >
</g>
<g >
</g>
<g >
</g>
<g >
</g>
</g> 
</svg>
