<?xml version="1.0" standalone="no"?>
 <!DOCTYPE svg PUBLIC "-//W3C//DTD SVG 1.1//EN" 
 "http://www.w3.org/Graphics/SVG/1.1/DTD/svg11.dtd"> 
<svg
  xmlns:svg="http://www.w3.org/2000/svg"
  xmlns="http://www.w3.org/2000/svg"
  xmlns:xlink="http://www.w3.org/1999/xlink"
  version="1.1"
  width="26.675080cm" height="11.435080cm" viewBox="0 0 105020 45020">
<title>SVG Picture created as ISOGamer2-brd.svg date 2021/05/03 11:32:36 </title>
  <desc>Picture generated by PCBNEW </desc>
<g style="fill:#000000; fill-opacity:1;stroke:#000000; stroke-opacity:1;
stroke-linecap:round; stroke-linejoin:round;"
 transform="translate(0 0) scale(1 1)">
</g>
<g style="fill:#000000; fill-opacity:0.0; 
stroke:#000000; stroke-width:-0.000393701; stroke-opacity:1; 
stroke-linecap:round; stroke-linejoin:round;">
<g >
</g>
<g >
</g>
<g >
</g>
<g >
</g>
<g >
</g>
<g >
</g>
<g >
</g>
<g >
</g>
<g >
</g>
<g >
</g>
<g >
</g>
<g >
</g>
<g >
</g>
<g >
</g>
<g >
</g>
<g >
</g>
<g >
</g>
<g >
</g>
<g >
</g>
<g >
</g>
<g >
</g>
<g >
</g>
<g >
</g>
<g >
</g>
<g >
</g>
<g >
</g>
<g >
</g>
<g >
</g>
<g >
</g>
<g >
</g>
<g >
</g>
<g >
</g>
<g >
</g>
<g >
</g>
<g >
</g>
<g >
</g>
<g >
</g>
<g >
</g>
<g >
</g>
<g >
</g>
<g >
</g>
<g >
</g>
<g >
</g>
<g >
</g>
<g >
</g>
<g >
</g>
<g >
</g>
<g >
</g>
</g>
<g style="fill:#000000; fill-opacity:0.0; 
stroke:#000000; stroke-width:-0.000393701; stroke-opacity:1; 
stroke-linecap:round; stroke-linejoin:round;">
</g>
<g style="fill:#000000; fill-opacity:0.0; 
stroke:#000000; stroke-width:19.685; stroke-opacity:1; 
stroke-linecap:round; stroke-linejoin:round;">
<circle cx="85557.3" cy="7978.77" r="393.701" /> 
<path d="M97744 23681
L97744 478
" />
<circle cx="2822.92" cy="42197.7" r="1062.99" /> 
<circle cx="2822.35" cy="2822.35" r="1062.99" /> 
<path d="M105010 44072
L105010 947
" />
<circle cx="102198" cy="2822.67" r="1062.99" /> 
<path d="M90244 23681
L90244 478
" />
<path d="M947 9
L89776 10
" />
<path d="M104072 10
L98213 10
" />
<path d="M90244.8 478.767 A468.75 468.75 0.0 0 0 89776 10.0161" />
<path d="M98213.6 10.0161 A468.75 468.75 0.0 0 0 97744.8 478.767" />
<circle cx="102432" cy="7978.77" r="393.701" /> 
<circle cx="88838.5" cy="14775.7" r="590.551" /> 
<path d="M90244 23681
L97744 23681
" />
<path d="M10.4236 44072.7 A937.5 937.5 0.0 0 0 947.924 45010.2" />
<circle cx="52510.1" cy="1650.47" r="393.701" /> 
<circle cx="87666.5" cy="43369.4" r="393.701" /> 
<path d="M10 44072
L9 947
" />
<path d="M105010 947.347 A937.5 937.5 0.0 0 0 104073 9.84685" />
<path d="M104073 45010.2 A937.5 937.5 0.0 0 0 105010 44072.7" />
<circle cx="87666.5" cy="1650.47" r="393.701" /> 
<circle cx="16884.9" cy="1650.47" r="393.701" /> 
<circle cx="16884.9" cy="43369.4" r="393.701" /> 
<path d="M947 45010
L104072 45010
" />
<circle cx="52510.1" cy="43369.4" r="393.701" /> 
<circle cx="102198" cy="42197.7" r="1062.99" /> 
<path d="M947.343 9.84291 A937.5 937.5 0.0 0 0 9.84291 947.343" />
<circle cx="2588.31" cy="7978.94" r="393.701" /> 
<circle cx="19463.3" cy="7978.94" r="393.701" /> 
<g >
</g>
<g >
</g>
<g >
</g>
<g >
</g>
<g >
</g>
<g >
</g>
<g >
</g>
<g >
</g>
<g >
</g>
<g >
</g>
<g >
</g>
<g >
</g>
<g >
</g>
<g >
</g>
<g >
</g>
<g >
</g>
<g >
</g>
<g >
</g>
<g >
</g>
<g >
</g>
<g >
</g>
<g >
</g>
<g >
</g>
<g >
</g>
<g >
</g>
<g >
</g>
<g >
</g>
<g >
</g>
<g >
</g>
<g >
</g>
<g >
</g>
<g >
</g>
<g >
</g>
<g >
</g>
<g >
</g>
<g >
</g>
<g >
</g>
<g >
</g>
<g >
</g>
<g >
</g>
<g >
</g>
<g >
</g>
<g >
</g>
<g >
</g>
<g >
</g>
<g >
</g>
<g >
</g>
<g >
</g>
</g> 
</svg>
