<?xml version="1.0" standalone="no"?>
 <!DOCTYPE svg PUBLIC "-//W3C//DTD SVG 1.1//EN" 
 "http://www.w3.org/Graphics/SVG/1.1/DTD/svg11.dtd"> 
<svg
  xmlns:svg="http://www.w3.org/2000/svg"
  xmlns="http://www.w3.org/2000/svg"
  xmlns:xlink="http://www.w3.org/1999/xlink"
  version="1.1"
  width="26.675080cm" height="11.435080cm" viewBox="0 0 105020 45020">
<title>SVG Picture created as ISOGamer2-brd.svg date 2021/05/03 11:31:00 </title>
  <desc>Picture generated by PCBNEW </desc>
<g style="fill:#000000; fill-opacity:1;stroke:#000000; stroke-opacity:1;
stroke-linecap:round; stroke-linejoin:round;"
 transform="translate(0 0) scale(1 1)">
</g>
<g style="fill:#000000; fill-opacity:0.0; 
stroke:#000000; stroke-width:-0.000393701; stroke-opacity:1; 
stroke-linecap:round; stroke-linejoin:round;">
<g >
</g>
<g >
</g>
<g >
</g>
<g >
</g>
<g >
</g>
<g >
</g>
<g >
</g>
<g >
</g>
<g >
</g>
<g >
</g>
<g >
</g>
<g >
</g>
<g >
</g>
<g >
</g>
<g >
</g>
<g >
</g>
<g >
</g>
<g >
</g>
<g >
</g>
<g >
</g>
<g >
</g>
<g >
</g>
<g >
</g>
<g >
</g>
<g >
</g>
<g >
</g>
<g >
</g>
<g >
</g>
<g >
</g>
<g >
</g>
<g >
</g>
<g >
</g>
<g >
</g>
<g >
</g>
<g >
</g>
<g >
</g>
<g >
</g>
<g >
</g>
<g >
</g>
<g >
</g>
<g >
</g>
<g >
</g>
<g >
</g>
<g >
</g>
<g >
</g>
<g >
</g>
<g >
</g>
<g >
</g>
</g>
<g style="fill:#000000; fill-opacity:0.0; 
stroke:#000000; stroke-width:-0.000393701; stroke-opacity:1; 
stroke-linecap:round; stroke-linejoin:round;">
</g>
<g style="fill:#000000; fill-opacity:0.0; 
stroke:#000000; stroke-width:19.685; stroke-opacity:1; 
stroke-linecap:round; stroke-linejoin:round;">
<path d="M104072 9
L97744 9
" />
<path d="M90244 3291
L90244 9
" />
<circle cx="16884.9" cy="1650.49" r="629.921" /> 
<path d="M97744 7978
L97744 9
" />
<circle cx="87666.5" cy="1650.49" r="629.921" /> 
<path d="M2354.18 34228.8 A937.5 937.5 0.0 0 0 3291.68 35166.3" />
<path d="M100791 35166
L100791 40791
" />
<circle cx="2822.35" cy="2822.37" r="1062.99" /> 
<path d="M102667 8916.26 A937.5 937.5 0.0 0 0 101729 7978.76" />
<path d="M5166 41728
L99854 41728
" />
<path d="M3291.68 7978.76 A937.5 937.5 0.0 0 0 2354.18 8916.26" />
<circle cx="52510.1" cy="43369.4" r="629.921" /> 
<circle cx="102198" cy="42197.7" r="1062.99" /> 
<path d="M947.343 9.85394 A937.5 937.5 0.0 0 0 9.84291 947.354" />
<path d="M105010 947.358 A937.5 937.5 0.0 0 0 104073 9.85787" />
<path d="M101729 35166.3 A937.5 937.5 0.0 0 0 102667 34228.8" />
<path d="M97744 7978
L101729 7978
" />
<path d="M14072 4228
L14072 7978
" />
<path d="M3291 35166
L4229 35166
" />
<path d="M947 45010
L104072 45010
" />
<circle cx="102198" cy="2822.68" r="1062.99" /> 
<path d="M10.4236 44072.7 A937.5 937.5 0.0 0 0 947.924 45010.2" />
<path d="M105010 44072
L105010 947
" />
<path d="M104073 45010.2 A937.5 937.5 0.0 0 0 105010 44072.7" />
<circle cx="16884.9" cy="43369.4" r="629.921" /> 
<path d="M102666 8916
L102666 10322
" />
<path d="M10 44072
L9 947
" />
<path d="M102666 10322
L102666 34228
" />
<path d="M15009.9 3291.12 A937.504 937.504 0.0 0 0 14072.4 4228.62" />
<path d="M2354 8916
L2354 10322
" />
<path d="M99854.2 41728.8 A937.5 937.5 0.0 0 0 100792 40791.3" />
<path d="M4229 35166
L4229 40791
" />
<path d="M947 9
L90244 9
" />
<path d="M14072 7978
L3291 7978
" />
<path d="M101729 35166
L100791 35166
" />
<circle cx="2822.92" cy="42197.7" r="1062.99" /> 
<path d="M90244 3291
L15009 3291
" />
<circle cx="87666.5" cy="43369.4" r="629.921" /> 
<path d="M2354 34228
L2354 10322
" />
<circle cx="52510.1" cy="1650.49" r="629.921" /> 
<path d="M4229.18 40791.3 A937.5 937.5 0.0 0 0 5166.68 41728.8" />
<g >
</g>
<g >
</g>
<g >
</g>
<g >
</g>
<g >
</g>
<g >
</g>
<g >
</g>
<g >
</g>
<g >
</g>
<g >
</g>
<g >
</g>
<g >
</g>
<g >
</g>
<g >
</g>
<g >
</g>
<g >
</g>
<g >
</g>
<g >
</g>
<g >
</g>
<g >
</g>
<g >
</g>
<g >
</g>
<g >
</g>
<g >
</g>
<g >
</g>
<g >
</g>
<g >
</g>
<g >
</g>
<g >
</g>
<g >
</g>
<g >
</g>
<g >
</g>
<g >
</g>
<g >
</g>
<g >
</g>
<g >
</g>
<g >
</g>
<g >
</g>
<g >
</g>
<g >
</g>
<g >
</g>
<g >
</g>
<g >
</g>
<g >
</g>
<g >
</g>
<g >
</g>
<g >
</g>
<g >
</g>
</g> 
</svg>
